<svg width="330" height="203" viewBox="0 0 330 203" fill="none" xmlns="http://www.w3.org/2000/svg">
<rect y="0.292664" width="329" height="202" rx="15" fill="#F5F5F5"/>
<path d="M15.0817 71H314.082V176C314.082 181.523 309.605 186 304.082 186H25.0817C19.5588 186 15.0817 181.523 15.0817 176V71Z" fill="#B8F500"/>
<rect x="30.0817" y="86" width="269" height="30" rx="10" fill="#4A6600"/>
<path d="M90.0843 105H88.2224L91.0594 96.7818H93.2986L96.1316 105H94.2697L92.2111 98.6598H92.1469L90.0843 105ZM89.968 101.77H94.366V103.126H89.968V101.77ZM99.073 105.1C98.6048 105.1 98.1808 104.98 97.8009 104.739C97.4237 104.496 97.1241 104.139 96.902 103.668C96.6827 103.194 96.573 102.614 96.573 101.926C96.573 101.22 96.6867 100.633 96.9141 100.165C97.1415 99.6938 97.4438 99.342 97.821 99.1092C98.2009 98.8738 98.6168 98.7561 99.0689 98.7561C99.414 98.7561 99.7016 98.815 99.9317 98.9327C100.164 99.0477 100.352 99.1922 100.493 99.3661C100.638 99.5373 100.748 99.7058 100.823 99.8717H100.875V96.7818H102.58V105H100.895V104.013H100.823C100.742 104.184 100.629 104.354 100.481 104.522C100.337 104.688 100.148 104.826 99.9156 104.936C99.6856 105.045 99.4047 105.1 99.073 105.1ZM99.6147 103.74C99.8902 103.74 100.123 103.665 100.313 103.515C100.506 103.363 100.653 103.15 100.754 102.877C100.859 102.604 100.911 102.285 100.911 101.918C100.911 101.552 100.86 101.233 100.758 100.963C100.657 100.693 100.51 100.484 100.317 100.337C100.124 100.19 99.8902 100.116 99.6147 100.116C99.3338 100.116 99.097 100.193 98.9044 100.345C98.7118 100.498 98.566 100.709 98.467 100.979C98.368 101.249 98.3186 101.562 98.3186 101.918C98.3186 102.277 98.368 102.594 98.467 102.869C98.5687 103.142 98.7145 103.356 98.9044 103.511C99.097 103.664 99.3338 103.74 99.6147 103.74ZM106.257 105.1C105.789 105.1 105.365 104.98 104.985 104.739C104.608 104.496 104.308 104.139 104.086 103.668C103.867 103.194 103.757 102.614 103.757 101.926C103.757 101.22 103.871 100.633 104.098 100.165C104.325 99.6938 104.628 99.342 105.005 99.1092C105.385 98.8738 105.801 98.7561 106.253 98.7561C106.598 98.7561 106.886 98.815 107.116 98.9327C107.348 99.0477 107.536 99.1922 107.677 99.3661C107.822 99.5373 107.932 99.7058 108.006 99.8717H108.059V96.7818H109.764V105H108.079V104.013H108.006C107.926 104.184 107.812 104.354 107.665 104.522C107.521 104.688 107.332 104.826 107.1 104.936C106.869 105.045 106.589 105.1 106.257 105.1ZM106.799 103.74C107.074 103.74 107.307 103.665 107.497 103.515C107.689 103.363 107.837 103.15 107.938 102.877C108.043 102.604 108.095 102.285 108.095 101.918C108.095 101.552 108.044 101.233 107.942 100.963C107.841 100.693 107.693 100.484 107.501 100.337C107.308 100.19 107.074 100.116 106.799 100.116C106.518 100.116 106.281 100.193 106.088 100.345C105.896 100.498 105.75 100.709 105.651 100.979C105.552 101.249 105.502 101.562 105.502 101.918C105.502 102.277 105.552 102.594 105.651 102.869C105.753 103.142 105.898 103.356 106.088 103.511C106.281 103.664 106.518 103.74 106.799 103.74ZM117.063 98.8364V100.12H113.351V98.8364H117.063ZM114.194 97.3597H115.904V103.106C115.904 103.264 115.928 103.387 115.976 103.475C116.024 103.561 116.091 103.621 116.176 103.656C116.265 103.69 116.366 103.708 116.481 103.708C116.562 103.708 116.642 103.701 116.722 103.688C116.802 103.672 116.864 103.66 116.907 103.652L117.176 104.924C117.09 104.951 116.97 104.981 116.814 105.016C116.659 105.054 116.471 105.076 116.249 105.084C115.837 105.1 115.476 105.045 115.165 104.92C114.858 104.794 114.618 104.599 114.447 104.334C114.276 104.069 114.191 103.735 114.194 103.331V97.3597ZM120.019 101.437V105H118.309V96.7818H119.971V99.9238H120.043C120.182 99.56 120.407 99.2751 120.717 99.0691C121.027 98.8604 121.416 98.7561 121.885 98.7561C122.313 98.7561 122.686 98.8497 123.004 99.037C123.325 99.2216 123.574 99.4878 123.751 99.8355C123.93 100.181 124.018 100.594 124.015 101.075V105H122.306V101.38C122.309 101.001 122.212 100.705 122.017 100.494C121.824 100.282 121.554 100.177 121.206 100.177C120.974 100.177 120.768 100.226 120.589 100.325C120.412 100.424 120.273 100.569 120.171 100.758C120.072 100.946 120.021 101.172 120.019 101.437ZM125.361 105V98.8364H127.07V105H125.361ZM126.219 98.0418C125.965 98.0418 125.747 97.9576 125.565 97.789C125.386 97.6178 125.297 97.4132 125.297 97.1751C125.297 96.9397 125.386 96.7377 125.565 96.5691C125.747 96.3979 125.965 96.3123 126.219 96.3123C126.474 96.3123 126.69 96.3979 126.87 96.5691C127.051 96.7377 127.142 96.9397 127.142 97.1751C127.142 97.4132 127.051 97.6178 126.87 97.789C126.69 97.9576 126.474 98.0418 126.219 98.0418ZM133.568 100.594L132.003 100.69C131.976 100.557 131.919 100.436 131.83 100.329C131.742 100.219 131.626 100.132 131.481 100.068C131.339 100.001 131.17 99.968 130.972 99.968C130.707 99.968 130.483 100.024 130.301 100.137C130.12 100.246 130.029 100.393 130.029 100.578C130.029 100.725 130.087 100.849 130.205 100.951C130.323 101.053 130.525 101.134 130.811 101.196L131.927 101.421C132.526 101.544 132.973 101.742 133.267 102.014C133.561 102.287 133.708 102.646 133.708 103.09C133.708 103.494 133.589 103.848 133.351 104.153C133.116 104.458 132.792 104.696 132.38 104.868C131.971 105.036 131.499 105.12 130.964 105.12C130.148 105.12 129.498 104.951 129.013 104.611C128.532 104.268 128.25 103.803 128.167 103.214L129.848 103.126C129.899 103.375 130.022 103.565 130.217 103.696C130.412 103.824 130.663 103.888 130.968 103.888C131.267 103.888 131.508 103.831 131.69 103.716C131.874 103.598 131.968 103.447 131.971 103.262C131.968 103.107 131.903 102.98 131.774 102.881C131.646 102.78 131.448 102.702 131.18 102.649L130.113 102.436C129.511 102.315 129.063 102.107 128.769 101.81C128.477 101.513 128.331 101.134 128.331 100.674C128.331 100.278 128.438 99.9372 128.652 99.651C128.869 99.3647 129.173 99.144 129.563 98.9888C129.956 98.8337 130.416 98.7561 130.943 98.7561C131.722 98.7561 132.335 98.9206 132.781 99.2497C133.231 99.5787 133.493 100.027 133.568 100.594ZM139.671 105.1C139.203 105.1 138.779 104.98 138.399 104.739C138.022 104.496 137.722 104.139 137.5 103.668C137.281 103.194 137.171 102.614 137.171 101.926C137.171 101.22 137.285 100.633 137.512 100.165C137.74 99.6938 138.042 99.342 138.419 99.1092C138.799 98.8738 139.215 98.7561 139.667 98.7561C140.012 98.7561 140.3 98.815 140.53 98.9327C140.763 99.0477 140.95 99.1922 141.092 99.3661C141.236 99.5373 141.346 99.7058 141.421 99.8717H141.473V96.7818H143.178V105H141.493V104.013H141.421C141.341 104.184 141.227 104.354 141.08 104.522C140.935 104.688 140.747 104.826 140.514 104.936C140.284 105.045 140.003 105.1 139.671 105.1ZM140.213 103.74C140.489 103.74 140.721 103.665 140.911 103.515C141.104 103.363 141.251 103.15 141.353 102.877C141.457 102.604 141.509 102.285 141.509 101.918C141.509 101.552 141.458 101.233 141.357 100.963C141.255 100.693 141.108 100.484 140.915 100.337C140.723 100.19 140.489 100.116 140.213 100.116C139.932 100.116 139.695 100.193 139.503 100.345C139.31 100.498 139.164 100.709 139.065 100.979C138.966 101.249 138.917 101.562 138.917 101.918C138.917 102.277 138.966 102.594 139.065 102.869C139.167 103.142 139.313 103.356 139.503 103.511C139.695 103.664 139.932 103.74 140.213 103.74ZM147.369 105.12C146.746 105.12 146.206 104.988 145.752 104.723C145.3 104.456 144.95 104.084 144.704 103.608C144.458 103.129 144.335 102.574 144.335 101.942C144.335 101.306 144.458 100.749 144.704 100.273C144.95 99.7941 145.3 99.4222 145.752 99.1574C146.206 98.8899 146.746 98.7561 147.369 98.7561C147.992 98.7561 148.53 98.8899 148.982 99.1574C149.437 99.4222 149.787 99.7941 150.033 100.273C150.279 100.749 150.402 101.306 150.402 101.942C150.402 102.574 150.279 103.129 150.033 103.608C149.787 104.084 149.437 104.456 148.982 104.723C148.53 104.988 147.992 105.12 147.369 105.12ZM147.377 103.796C147.66 103.796 147.897 103.716 148.087 103.555C148.277 103.392 148.42 103.17 148.516 102.889C148.615 102.608 148.665 102.289 148.665 101.93C148.665 101.572 148.615 101.252 148.516 100.971C148.42 100.69 148.277 100.468 148.087 100.305C147.897 100.142 147.66 100.06 147.377 100.06C147.091 100.06 146.85 100.142 146.655 100.305C146.462 100.468 146.316 100.69 146.217 100.971C146.121 101.252 146.073 101.572 146.073 101.93C146.073 102.289 146.121 102.608 146.217 102.889C146.316 103.17 146.462 103.392 146.655 103.555C146.85 103.716 147.091 103.796 147.377 103.796ZM151.514 105V98.8364H153.143V99.9238H153.215C153.344 99.5627 153.558 99.2778 153.857 99.0691C154.157 98.8604 154.516 98.7561 154.933 98.7561C155.356 98.7561 155.715 98.8618 156.012 99.0731C156.309 99.2818 156.507 99.5654 156.606 99.9238H156.67C156.796 99.5707 157.024 99.2885 157.353 99.0771C157.684 98.8631 158.076 98.7561 158.528 98.7561C159.104 98.7561 159.57 98.9394 159.929 99.3059C160.29 99.6697 160.471 100.186 160.471 100.855V105H158.765V101.192C158.765 100.849 158.674 100.593 158.492 100.421C158.31 100.25 158.083 100.165 157.81 100.165C157.5 100.165 157.258 100.264 157.084 100.462C156.91 100.657 156.823 100.915 156.823 101.236V105H155.166V101.156C155.166 100.853 155.079 100.613 154.905 100.433C154.734 100.254 154.508 100.165 154.227 100.165C154.037 100.165 153.866 100.213 153.713 100.309C153.563 100.403 153.444 100.535 153.356 100.706C153.268 100.875 153.223 101.073 153.223 101.3V105H151.514ZM163.578 105.116C163.185 105.116 162.835 105.048 162.527 104.912C162.219 104.773 161.976 104.568 161.797 104.298C161.62 104.025 161.532 103.685 161.532 103.279C161.532 102.936 161.595 102.649 161.721 102.416C161.846 102.183 162.017 101.996 162.234 101.854C162.451 101.712 162.697 101.605 162.973 101.533C163.251 101.461 163.542 101.41 163.847 101.38C164.206 101.343 164.495 101.308 164.714 101.276C164.933 101.241 165.093 101.191 165.192 101.124C165.291 101.057 165.34 100.958 165.34 100.827V100.803C165.34 100.548 165.26 100.352 165.099 100.213C164.941 100.074 164.717 100.004 164.425 100.004C164.118 100.004 163.873 100.072 163.691 100.209C163.509 100.342 163.389 100.511 163.33 100.714L161.749 100.586C161.829 100.211 161.987 99.8877 162.222 99.6148C162.458 99.3393 162.761 99.128 163.133 98.9808C163.508 98.831 163.941 98.7561 164.433 98.7561C164.776 98.7561 165.103 98.7962 165.416 98.8765C165.732 98.9567 166.012 99.0811 166.255 99.2497C166.501 99.4182 166.695 99.6349 166.837 99.8998C166.979 100.162 167.05 100.476 167.05 100.843V105H165.428V104.145H165.38C165.281 104.338 165.149 104.508 164.983 104.655C164.817 104.799 164.618 104.913 164.385 104.996C164.152 105.076 163.883 105.116 163.578 105.116ZM164.068 103.937C164.319 103.937 164.542 103.887 164.734 103.788C164.927 103.686 165.078 103.55 165.188 103.379C165.297 103.208 165.352 103.014 165.352 102.797V102.143C165.299 102.178 165.225 102.21 165.131 102.239C165.04 102.266 164.937 102.291 164.822 102.315C164.707 102.337 164.592 102.357 164.477 102.376C164.362 102.392 164.258 102.406 164.164 102.42C163.964 102.449 163.788 102.496 163.639 102.56C163.489 102.624 163.372 102.711 163.29 102.821C163.207 102.928 163.165 103.062 163.165 103.222C163.165 103.455 163.249 103.633 163.418 103.756C163.589 103.876 163.806 103.937 164.068 103.937ZM168.376 105V98.8364H170.085V105H168.376ZM169.234 98.0418C168.98 98.0418 168.762 97.9576 168.58 97.789C168.401 97.6178 168.312 97.4132 168.312 97.1751C168.312 96.9397 168.401 96.7377 168.58 96.5691C168.762 96.3979 168.98 96.3123 169.234 96.3123C169.489 96.3123 169.705 96.3979 169.885 96.5691C170.066 96.7377 170.157 96.9397 170.157 97.1751C170.157 97.4132 170.066 97.6178 169.885 97.789C169.705 97.9576 169.489 98.0418 169.234 98.0418ZM173.164 101.437V105H171.455V98.8364H173.084V99.9238H173.156C173.292 99.5654 173.521 99.2818 173.842 99.0731C174.163 98.8618 174.552 98.7561 175.01 98.7561C175.438 98.7561 175.811 98.8497 176.129 99.037C176.448 99.2243 176.695 99.4918 176.872 99.8396C177.048 100.185 177.137 100.597 177.137 101.075V105H175.427V101.38C175.43 101.003 175.334 100.709 175.138 100.498C174.943 100.284 174.674 100.177 174.332 100.177C174.102 100.177 173.898 100.226 173.722 100.325C173.548 100.424 173.411 100.569 173.312 100.758C173.216 100.946 173.167 101.172 173.164 101.437ZM184.378 98.8364V100.12H180.666V98.8364H184.378ZM181.509 97.3597H183.218V103.106C183.218 103.264 183.242 103.387 183.29 103.475C183.338 103.561 183.405 103.621 183.491 103.656C183.579 103.69 183.681 103.708 183.796 103.708C183.876 103.708 183.956 103.701 184.037 103.688C184.117 103.672 184.178 103.66 184.221 103.652L184.49 104.924C184.404 104.951 184.284 104.981 184.129 105.016C183.974 105.054 183.785 105.076 183.563 105.084C183.151 105.1 182.79 105.045 182.48 104.92C182.172 104.794 181.933 104.599 181.761 104.334C181.59 104.069 181.506 103.735 181.509 103.331V97.3597ZM188.21 105.12C187.587 105.12 187.048 104.988 186.593 104.723C186.141 104.456 185.792 104.084 185.545 103.608C185.299 103.129 185.176 102.574 185.176 101.942C185.176 101.306 185.299 100.749 185.545 100.273C185.792 99.7941 186.141 99.4222 186.593 99.1574C187.048 98.8899 187.587 98.7561 188.21 98.7561C188.833 98.7561 189.371 98.8899 189.823 99.1574C190.278 99.4222 190.628 99.7941 190.874 100.273C191.121 100.749 191.244 101.306 191.244 101.942C191.244 102.574 191.121 103.129 190.874 103.608C190.628 104.084 190.278 104.456 189.823 104.723C189.371 104.988 188.833 105.12 188.21 105.12ZM188.218 103.796C188.502 103.796 188.738 103.716 188.928 103.555C189.118 103.392 189.261 103.17 189.358 102.889C189.457 102.608 189.506 102.289 189.506 101.93C189.506 101.572 189.457 101.252 189.358 100.971C189.261 100.69 189.118 100.468 188.928 100.305C188.738 100.142 188.502 100.06 188.218 100.06C187.932 100.06 187.691 100.142 187.496 100.305C187.303 100.468 187.157 100.69 187.058 100.971C186.962 101.252 186.914 101.572 186.914 101.93C186.914 102.289 186.962 102.608 187.058 102.889C187.157 103.17 187.303 103.392 187.496 103.555C187.691 103.716 187.932 103.796 188.218 103.796ZM195.003 105V96.7818H196.712V99.8717H196.764C196.839 99.7058 196.947 99.5373 197.089 99.3661C197.234 99.1922 197.421 99.0477 197.651 98.9327C197.884 98.815 198.173 98.7561 198.518 98.7561C198.967 98.7561 199.382 98.8738 199.762 99.1092C200.142 99.342 200.445 99.6938 200.673 100.165C200.9 100.633 201.014 101.22 201.014 101.926C201.014 102.614 200.903 103.194 200.681 103.668C200.461 104.139 200.162 104.496 199.782 104.739C199.405 104.98 198.982 105.1 198.514 105.1C198.182 105.1 197.9 105.045 197.667 104.936C197.437 104.826 197.248 104.688 197.101 104.522C196.954 104.354 196.842 104.184 196.764 104.013H196.688V105H195.003ZM196.676 101.918C196.676 102.285 196.727 102.604 196.828 102.877C196.93 103.15 197.077 103.363 197.27 103.515C197.462 103.665 197.696 103.74 197.972 103.74C198.25 103.74 198.486 103.664 198.678 103.511C198.871 103.356 199.017 103.142 199.116 102.869C199.217 102.594 199.268 102.277 199.268 101.918C199.268 101.562 199.219 101.249 199.12 100.979C199.021 100.709 198.875 100.498 198.682 100.345C198.49 100.193 198.253 100.116 197.972 100.116C197.694 100.116 197.458 100.19 197.266 100.337C197.076 100.484 196.93 100.693 196.828 100.963C196.727 101.233 196.676 101.552 196.676 101.918ZM203.864 96.7818V105H202.154V96.7818H203.864ZM206.991 105.116C206.598 105.116 206.247 105.048 205.939 104.912C205.632 104.773 205.388 104.568 205.209 104.298C205.033 104.025 204.944 103.685 204.944 103.279C204.944 102.936 205.007 102.649 205.133 102.416C205.259 102.183 205.43 101.996 205.646 101.854C205.863 101.712 206.109 101.605 206.385 101.533C206.663 101.461 206.955 101.41 207.26 101.38C207.618 101.343 207.907 101.308 208.126 101.276C208.346 101.241 208.505 101.191 208.604 101.124C208.703 101.057 208.752 100.958 208.752 100.827V100.803C208.752 100.548 208.672 100.352 208.512 100.213C208.354 100.074 208.129 100.004 207.837 100.004C207.53 100.004 207.285 100.072 207.103 100.209C206.921 100.342 206.801 100.511 206.742 100.714L205.161 100.586C205.241 100.211 205.399 99.8877 205.634 99.6148C205.87 99.3393 206.174 99.128 206.545 98.9808C206.92 98.831 207.353 98.7561 207.845 98.7561C208.188 98.7561 208.516 98.7962 208.829 98.8765C209.144 98.9567 209.424 99.0811 209.667 99.2497C209.913 99.4182 210.107 99.6349 210.249 99.8998C210.391 100.162 210.462 100.476 210.462 100.843V105H208.841V104.145H208.793C208.694 104.338 208.561 104.508 208.395 104.655C208.229 104.799 208.03 104.913 207.797 104.996C207.565 105.076 207.296 105.116 206.991 105.116ZM207.48 103.937C207.732 103.937 207.954 103.887 208.146 103.788C208.339 103.686 208.49 103.55 208.6 103.379C208.71 103.208 208.764 103.014 208.764 102.797V102.143C208.711 102.178 208.637 102.21 208.544 102.239C208.453 102.266 208.35 102.291 208.235 102.315C208.12 102.337 208.005 102.357 207.89 102.376C207.775 102.392 207.67 102.406 207.577 102.42C207.376 102.449 207.201 102.496 207.051 102.56C206.901 102.624 206.785 102.711 206.702 102.821C206.619 102.928 206.577 103.062 206.577 103.222C206.577 103.455 206.662 103.633 206.83 103.756C207.001 103.876 207.218 103.937 207.48 103.937ZM214.573 105.12C213.942 105.12 213.399 104.987 212.944 104.719C212.492 104.449 212.144 104.074 211.9 103.596C211.66 103.117 211.539 102.566 211.539 101.942C211.539 101.311 211.661 100.757 211.904 100.281C212.151 99.8021 212.5 99.4289 212.952 99.1614C213.404 98.8912 213.942 98.7561 214.565 98.7561C215.103 98.7561 215.573 98.8538 215.977 99.049C216.381 99.2443 216.701 99.5185 216.936 99.8717C217.172 100.225 217.302 100.639 217.326 101.116H215.713C215.667 100.808 215.547 100.561 215.351 100.373C215.159 100.183 214.906 100.088 214.593 100.088C214.328 100.088 214.097 100.161 213.899 100.305C213.703 100.447 213.551 100.654 213.441 100.927C213.332 101.2 213.277 101.53 213.277 101.918C213.277 102.311 213.33 102.646 213.437 102.921C213.547 103.197 213.701 103.407 213.899 103.551C214.097 103.696 214.328 103.768 214.593 103.768C214.788 103.768 214.964 103.728 215.119 103.648C215.277 103.567 215.406 103.451 215.508 103.299C215.612 103.143 215.68 102.957 215.713 102.741H217.326C217.299 103.212 217.171 103.626 216.94 103.985C216.713 104.341 216.399 104.619 215.997 104.819C215.596 105.02 215.121 105.12 214.573 105.12ZM219.969 103.226L219.973 101.176H220.222L222.196 98.8364H224.158L221.506 101.934H221.101L219.969 103.226ZM218.42 105V96.7818H220.13V105H218.42ZM222.272 105L220.459 102.315L221.598 101.108L224.275 105H222.272ZM226.707 96.7818V105H224.997V96.7818H226.707ZM228.076 105V98.8364H229.785V105H228.076ZM228.935 98.0418C228.681 98.0418 228.463 97.9576 228.281 97.789C228.101 97.6178 228.012 97.4132 228.012 97.1751C228.012 96.9397 228.101 96.7377 228.281 96.5691C228.463 96.3979 228.681 96.3123 228.935 96.3123C229.189 96.3123 229.406 96.3979 229.585 96.5691C229.767 96.7377 229.858 96.9397 229.858 97.1751C229.858 97.4132 229.767 97.6178 229.585 97.789C229.406 97.9576 229.189 98.0418 228.935 98.0418ZM236.283 100.594L234.718 100.69C234.691 100.557 234.634 100.436 234.546 100.329C234.457 100.219 234.341 100.132 234.196 100.068C234.055 100.001 233.885 99.968 233.687 99.968C233.422 99.968 233.199 100.024 233.017 100.137C232.835 100.246 232.744 100.393 232.744 100.578C232.744 100.725 232.803 100.849 232.92 100.951C233.038 101.053 233.24 101.134 233.526 101.196L234.642 101.421C235.241 101.544 235.688 101.742 235.982 102.014C236.276 102.287 236.424 102.646 236.424 103.09C236.424 103.494 236.304 103.848 236.066 104.153C235.831 104.458 235.507 104.696 235.095 104.868C234.686 105.036 234.214 105.12 233.679 105.12C232.863 105.12 232.213 104.951 231.729 104.611C231.247 104.268 230.965 103.803 230.882 103.214L232.563 103.126C232.614 103.375 232.737 103.565 232.932 103.696C233.128 103.824 233.378 103.888 233.683 103.888C233.982 103.888 234.223 103.831 234.405 103.716C234.59 103.598 234.683 103.447 234.686 103.262C234.683 103.107 234.618 102.98 234.489 102.881C234.361 102.78 234.163 102.702 233.895 102.649L232.828 102.436C232.226 102.315 231.778 102.107 231.484 101.81C231.192 101.513 231.046 101.134 231.046 100.674C231.046 100.278 231.153 99.9372 231.367 99.651C231.584 99.3647 231.888 99.144 232.278 98.9888C232.672 98.8337 233.132 98.7561 233.659 98.7561C234.437 98.7561 235.05 98.9206 235.497 99.2497C235.946 99.5787 236.208 100.027 236.283 100.594ZM240.778 98.8364V100.12H237.067V98.8364H240.778ZM237.909 97.3597H239.619V103.106C239.619 103.264 239.643 103.387 239.691 103.475C239.739 103.561 239.806 103.621 239.892 103.656C239.98 103.69 240.082 103.708 240.197 103.708C240.277 103.708 240.357 103.701 240.437 103.688C240.518 103.672 240.579 103.66 240.622 103.652L240.891 104.924C240.805 104.951 240.685 104.981 240.53 105.016C240.374 105.054 240.186 105.076 239.964 105.084C239.552 105.1 239.191 105.045 238.88 104.92C238.573 104.794 238.333 104.599 238.162 104.334C237.991 104.069 237.907 103.735 237.909 103.331V97.3597Z" fill="white"/>
<rect x="30.0817" y="121" width="269" height="30" rx="10" fill="#4A6600"/>
<path d="M101.318 140H99.4562L102.293 131.782H104.532L107.365 140H105.503L103.445 133.66H103.381L101.318 140ZM101.202 136.77H105.6V138.126H101.202V136.77ZM110.307 140.1C109.839 140.1 109.415 139.98 109.035 139.739C108.657 139.496 108.358 139.139 108.136 138.668C107.916 138.194 107.807 137.614 107.807 136.926C107.807 136.22 107.92 135.633 108.148 135.165C108.375 134.694 108.678 134.342 109.055 134.109C109.435 133.874 109.851 133.756 110.303 133.756C110.648 133.756 110.935 133.815 111.165 133.933C111.398 134.048 111.585 134.192 111.727 134.366C111.872 134.537 111.981 134.706 112.056 134.872H112.108V131.782H113.814V140H112.129V139.013H112.056C111.976 139.184 111.862 139.354 111.715 139.522C111.571 139.688 111.382 139.826 111.149 139.936C110.919 140.045 110.638 140.1 110.307 140.1ZM110.848 138.74C111.124 138.74 111.357 138.665 111.547 138.515C111.739 138.363 111.886 138.15 111.988 137.877C112.092 137.604 112.145 137.285 112.145 136.918C112.145 136.552 112.094 136.233 111.992 135.963C111.89 135.693 111.743 135.484 111.551 135.337C111.358 135.19 111.124 135.116 110.848 135.116C110.568 135.116 110.331 135.193 110.138 135.345C109.946 135.498 109.8 135.709 109.701 135.979C109.602 136.249 109.552 136.562 109.552 136.918C109.552 137.277 109.602 137.594 109.701 137.869C109.802 138.142 109.948 138.356 110.138 138.511C110.331 138.664 110.568 138.74 110.848 138.74ZM117.491 140.1C117.022 140.1 116.598 139.98 116.219 139.739C115.841 139.496 115.542 139.139 115.32 138.668C115.1 138.194 114.991 137.614 114.991 136.926C114.991 136.22 115.104 135.633 115.332 135.165C115.559 134.694 115.861 134.342 116.239 134.109C116.619 133.874 117.035 133.756 117.487 133.756C117.832 133.756 118.119 133.815 118.349 133.933C118.582 134.048 118.769 134.192 118.911 134.366C119.056 134.537 119.165 134.706 119.24 134.872H119.292V131.782H120.998V140H119.312V139.013H119.24C119.16 139.184 119.046 139.354 118.899 139.522C118.755 139.688 118.566 139.826 118.333 139.936C118.103 140.045 117.822 140.1 117.491 140.1ZM118.032 138.74C118.308 138.74 118.541 138.665 118.731 138.515C118.923 138.363 119.07 138.15 119.172 137.877C119.276 137.604 119.328 137.285 119.328 136.918C119.328 136.552 119.278 136.233 119.176 135.963C119.074 135.693 118.927 135.484 118.735 135.337C118.542 135.19 118.308 135.116 118.032 135.116C117.751 135.116 117.515 135.193 117.322 135.345C117.129 135.498 116.984 135.709 116.885 135.979C116.786 136.249 116.736 136.562 116.736 136.918C116.736 137.277 116.786 137.594 116.885 137.869C116.986 138.142 117.132 138.356 117.322 138.511C117.515 138.664 117.751 138.74 118.032 138.74ZM128.333 133.836V135.12H124.529V133.836H128.333ZM125.4 140V133.391C125.4 132.944 125.487 132.574 125.661 132.279C125.837 131.985 126.078 131.764 126.383 131.617C126.688 131.47 127.034 131.397 127.422 131.397C127.684 131.397 127.924 131.417 128.141 131.457C128.36 131.497 128.523 131.533 128.63 131.565L128.325 132.849C128.258 132.828 128.175 132.808 128.076 132.789C127.98 132.77 127.881 132.761 127.779 132.761C127.528 132.761 127.353 132.82 127.254 132.937C127.155 133.053 127.105 133.214 127.105 133.423V140H125.4ZM133.33 137.376V133.836H135.04V140H133.398V138.88H133.334C133.195 139.242 132.964 139.532 132.64 139.751C132.319 139.971 131.927 140.08 131.464 140.08C131.052 140.08 130.69 139.987 130.377 139.799C130.064 139.612 129.819 139.346 129.642 139.001C129.468 138.656 129.38 138.242 129.378 137.761V133.836H131.087V137.456C131.09 137.82 131.187 138.107 131.38 138.319C131.572 138.53 131.831 138.636 132.154 138.636C132.36 138.636 132.553 138.589 132.732 138.495C132.911 138.399 133.056 138.257 133.166 138.07C133.278 137.883 133.333 137.651 133.33 137.376ZM138.116 131.782V140H136.407V131.782H138.116ZM141.195 131.782V140H139.486V131.782H141.195ZM150.288 131.782H152.026V137.119C152.026 137.718 151.883 138.242 151.596 138.692C151.313 139.141 150.915 139.492 150.404 139.743C149.894 139.992 149.298 140.116 148.619 140.116C147.937 140.116 147.34 139.992 146.829 139.743C146.318 139.492 145.921 139.141 145.637 138.692C145.354 138.242 145.212 137.718 145.212 137.119V131.782H146.949V136.97C146.949 137.283 147.018 137.562 147.154 137.805C147.293 138.048 147.489 138.24 147.74 138.379C147.991 138.518 148.284 138.587 148.619 138.587C148.956 138.587 149.249 138.518 149.498 138.379C149.749 138.24 149.943 138.048 150.079 137.805C150.219 137.562 150.288 137.283 150.288 136.97V131.782ZM153.455 140V131.782H156.698C157.318 131.782 157.848 131.893 158.287 132.115C158.728 132.334 159.064 132.646 159.294 133.05C159.527 133.451 159.643 133.923 159.643 134.466C159.643 135.012 159.525 135.482 159.29 135.875C159.054 136.265 158.713 136.565 158.267 136.774C157.822 136.982 157.285 137.087 156.653 137.087H154.482V135.69H156.373C156.704 135.69 156.98 135.645 157.199 135.554C157.419 135.463 157.582 135.326 157.689 135.145C157.798 134.963 157.853 134.737 157.853 134.466C157.853 134.194 157.798 133.963 157.689 133.776C157.582 133.589 157.417 133.447 157.195 133.351C156.976 133.252 156.699 133.202 156.364 133.202H155.193V140H153.455ZM157.893 136.26L159.936 140H158.018L156.019 136.26H157.893ZM160.871 140V131.782H162.608V138.567H166.132V140H160.871ZM173.144 133.836V135.12H169.432V133.836H173.144ZM170.275 132.36H171.984V138.106C171.984 138.264 172.008 138.387 172.056 138.475C172.105 138.561 172.172 138.621 172.257 138.656C172.345 138.69 172.447 138.708 172.562 138.708C172.642 138.708 172.723 138.701 172.803 138.688C172.883 138.672 172.945 138.66 172.987 138.652L173.256 139.924C173.171 139.951 173.05 139.981 172.895 140.016C172.74 140.054 172.551 140.076 172.329 140.084C171.917 140.1 171.556 140.045 171.246 139.92C170.938 139.794 170.699 139.599 170.528 139.334C170.356 139.069 170.272 138.735 170.275 138.331V132.36ZM176.976 140.12C176.353 140.12 175.814 139.988 175.359 139.723C174.907 139.456 174.558 139.084 174.312 138.608C174.066 138.129 173.942 137.574 173.942 136.942C173.942 136.306 174.066 135.749 174.312 135.273C174.558 134.794 174.907 134.422 175.359 134.157C175.814 133.89 176.353 133.756 176.976 133.756C177.599 133.756 178.137 133.89 178.589 134.157C179.044 134.422 179.395 134.794 179.641 135.273C179.887 135.749 180.01 136.306 180.01 136.942C180.01 137.574 179.887 138.129 179.641 138.608C179.395 139.084 179.044 139.456 178.589 139.723C178.137 139.988 177.599 140.12 176.976 140.12ZM176.984 138.796C177.268 138.796 177.504 138.716 177.694 138.555C177.884 138.392 178.027 138.17 178.124 137.889C178.223 137.608 178.272 137.289 178.272 136.93C178.272 136.572 178.223 136.252 178.124 135.971C178.027 135.69 177.884 135.468 177.694 135.305C177.504 135.142 177.268 135.06 176.984 135.06C176.698 135.06 176.457 135.142 176.262 135.305C176.069 135.468 175.923 135.69 175.824 135.971C175.728 136.252 175.68 136.572 175.68 136.93C175.68 137.289 175.728 137.608 175.824 137.889C175.923 138.17 176.069 138.392 176.262 138.555C176.457 138.716 176.698 138.796 176.984 138.796ZM183.769 140V131.782H185.478V134.872H185.53C185.605 134.706 185.714 134.537 185.855 134.366C186 134.192 186.187 134.048 186.417 133.933C186.65 133.815 186.939 133.756 187.284 133.756C187.733 133.756 188.148 133.874 188.528 134.109C188.908 134.342 189.211 134.694 189.439 135.165C189.666 135.633 189.78 136.22 189.78 136.926C189.78 137.614 189.669 138.194 189.447 138.668C189.228 139.139 188.928 139.496 188.548 139.739C188.171 139.98 187.748 140.1 187.28 140.1C186.948 140.1 186.666 140.045 186.433 139.936C186.203 139.826 186.015 139.688 185.867 139.522C185.72 139.354 185.608 139.184 185.53 139.013H185.454V140H183.769ZM185.442 136.918C185.442 137.285 185.493 137.604 185.595 137.877C185.696 138.15 185.843 138.363 186.036 138.515C186.229 138.665 186.463 138.74 186.738 138.74C187.016 138.74 187.252 138.664 187.444 138.511C187.637 138.356 187.783 138.142 187.882 137.869C187.984 137.594 188.034 137.277 188.034 136.918C188.034 136.562 187.985 136.249 187.886 135.979C187.787 135.709 187.641 135.498 187.449 135.345C187.256 135.193 187.019 135.116 186.738 135.116C186.46 135.116 186.225 135.19 186.032 135.337C185.842 135.484 185.696 135.693 185.595 135.963C185.493 136.233 185.442 136.552 185.442 136.918ZM192.63 131.782V140H190.921V131.782H192.63ZM195.757 140.116C195.364 140.116 195.013 140.048 194.706 139.912C194.398 139.773 194.155 139.568 193.975 139.298C193.799 139.025 193.71 138.685 193.71 138.279C193.71 137.936 193.773 137.649 193.899 137.416C194.025 137.183 194.196 136.996 194.413 136.854C194.629 136.712 194.876 136.605 195.151 136.533C195.429 136.461 195.721 136.41 196.026 136.38C196.384 136.343 196.673 136.308 196.893 136.276C197.112 136.241 197.271 136.191 197.37 136.124C197.469 136.057 197.519 135.958 197.519 135.827V135.803C197.519 135.548 197.438 135.352 197.278 135.213C197.12 135.074 196.895 135.004 196.604 135.004C196.296 135.004 196.051 135.072 195.869 135.209C195.687 135.342 195.567 135.511 195.508 135.714L193.927 135.586C194.007 135.211 194.165 134.888 194.401 134.615C194.636 134.339 194.94 134.128 195.312 133.981C195.686 133.831 196.119 133.756 196.612 133.756C196.954 133.756 197.282 133.796 197.595 133.876C197.911 133.957 198.19 134.081 198.434 134.25C198.68 134.418 198.874 134.635 199.015 134.9C199.157 135.162 199.228 135.476 199.228 135.843V140H197.607V139.145H197.559C197.46 139.338 197.327 139.508 197.161 139.655C196.996 139.799 196.796 139.913 196.564 139.996C196.331 140.076 196.062 140.116 195.757 140.116ZM196.247 138.937C196.498 138.937 196.72 138.887 196.913 138.788C197.105 138.686 197.256 138.55 197.366 138.379C197.476 138.208 197.531 138.014 197.531 137.797V137.143C197.477 137.178 197.404 137.21 197.31 137.239C197.219 137.266 197.116 137.291 197.001 137.315C196.886 137.337 196.771 137.357 196.656 137.376C196.541 137.392 196.436 137.406 196.343 137.42C196.142 137.449 195.967 137.496 195.817 137.56C195.667 137.624 195.551 137.711 195.468 137.821C195.385 137.928 195.344 138.062 195.344 138.222C195.344 138.455 195.428 138.633 195.596 138.756C195.768 138.876 195.984 138.937 196.247 138.937ZM203.339 140.12C202.708 140.12 202.165 139.987 201.71 139.719C201.258 139.449 200.91 139.074 200.667 138.596C200.426 138.117 200.305 137.566 200.305 136.942C200.305 136.311 200.427 135.757 200.671 135.281C200.917 134.802 201.266 134.429 201.718 134.161C202.17 133.891 202.708 133.756 203.331 133.756C203.869 133.756 204.34 133.854 204.744 134.049C205.148 134.244 205.467 134.519 205.703 134.872C205.938 135.225 206.068 135.639 206.092 136.116H204.479C204.433 135.808 204.313 135.561 204.118 135.373C203.925 135.183 203.672 135.088 203.359 135.088C203.094 135.088 202.863 135.161 202.665 135.305C202.47 135.447 202.317 135.654 202.208 135.927C202.098 136.2 202.043 136.53 202.043 136.918C202.043 137.311 202.097 137.646 202.204 137.921C202.313 138.197 202.467 138.407 202.665 138.551C202.863 138.696 203.094 138.768 203.359 138.768C203.554 138.768 203.73 138.728 203.885 138.648C204.043 138.567 204.172 138.451 204.274 138.299C204.378 138.143 204.447 137.957 204.479 137.741H206.092C206.065 138.212 205.937 138.626 205.707 138.985C205.479 139.341 205.165 139.619 204.764 139.819C204.362 140.02 203.888 140.12 203.339 140.12ZM208.735 138.226L208.739 136.176H208.988L210.962 133.836H212.925L210.272 136.934H209.867L208.735 138.226ZM207.186 140V131.782H208.896V140H207.186ZM211.039 140L209.225 137.315L210.365 136.108L213.041 140H211.039ZM215.473 131.782V140H213.763V131.782H215.473ZM216.842 140V133.836H218.552V140H216.842ZM217.701 133.042C217.447 133.042 217.229 132.958 217.047 132.789C216.868 132.618 216.778 132.413 216.778 132.175C216.778 131.94 216.868 131.738 217.047 131.569C217.229 131.398 217.447 131.312 217.701 131.312C217.955 131.312 218.172 131.398 218.351 131.569C218.533 131.738 218.624 131.94 218.624 132.175C218.624 132.413 218.533 132.618 218.351 132.789C218.172 132.958 217.955 133.042 217.701 133.042ZM225.049 135.594L223.484 135.69C223.458 135.557 223.4 135.436 223.312 135.329C223.223 135.219 223.107 135.132 222.963 135.068C222.821 135.001 222.651 134.968 222.453 134.968C222.188 134.968 221.965 135.024 221.783 135.137C221.601 135.246 221.51 135.393 221.51 135.578C221.51 135.725 221.569 135.849 221.687 135.951C221.804 136.053 222.006 136.134 222.293 136.196L223.408 136.421C224.007 136.544 224.454 136.742 224.748 137.014C225.043 137.287 225.19 137.646 225.19 138.09C225.19 138.494 225.071 138.848 224.833 139.153C224.597 139.458 224.273 139.696 223.862 139.868C223.452 140.036 222.98 140.12 222.445 140.12C221.629 140.12 220.979 139.951 220.495 139.611C220.013 139.268 219.731 138.803 219.648 138.214L221.329 138.126C221.38 138.375 221.503 138.565 221.699 138.696C221.894 138.824 222.144 138.888 222.449 138.888C222.749 138.888 222.989 138.831 223.171 138.716C223.356 138.598 223.45 138.447 223.452 138.262C223.45 138.107 223.384 137.98 223.256 137.881C223.127 137.78 222.929 137.702 222.662 137.649L221.594 137.436C220.992 137.315 220.544 137.107 220.25 136.81C219.958 136.513 219.813 136.134 219.813 135.674C219.813 135.278 219.92 134.937 220.134 134.651C220.35 134.365 220.654 134.144 221.045 133.989C221.438 133.834 221.898 133.756 222.425 133.756C223.203 133.756 223.816 133.921 224.263 134.25C224.712 134.579 224.974 135.027 225.049 135.594ZM229.545 133.836V135.12H225.833V133.836H229.545ZM226.675 132.36H228.385V138.106C228.385 138.264 228.409 138.387 228.457 138.475C228.505 138.561 228.572 138.621 228.658 138.656C228.746 138.69 228.848 138.708 228.963 138.708C229.043 138.708 229.123 138.701 229.204 138.688C229.284 138.672 229.345 138.66 229.388 138.652L229.657 139.924C229.571 139.951 229.451 139.981 229.296 140.016C229.141 140.054 228.952 140.076 228.73 140.084C228.318 140.1 227.957 140.045 227.647 139.92C227.339 139.794 227.1 139.599 226.928 139.334C226.757 139.069 226.673 138.735 226.675 138.331V132.36Z" fill="white"/>
<path d="M141.596 175H139.735L142.572 166.782H144.811L147.644 175H145.782L143.723 168.66H143.659L141.596 175ZM141.48 171.77H145.878V173.126H141.48V171.77ZM150.585 175.1C150.117 175.1 149.693 174.98 149.313 174.739C148.936 174.496 148.636 174.139 148.414 173.668C148.195 173.194 148.085 172.614 148.085 171.926C148.085 171.22 148.199 170.633 148.426 170.165C148.654 169.694 148.956 169.342 149.333 169.109C149.713 168.874 150.129 168.756 150.581 168.756C150.926 168.756 151.214 168.815 151.444 168.933C151.677 169.048 151.864 169.192 152.006 169.366C152.15 169.537 152.26 169.706 152.335 169.872H152.387V166.782H154.092V175H152.407V174.013H152.335C152.254 174.184 152.141 174.354 151.994 174.522C151.849 174.688 151.66 174.826 151.428 174.936C151.198 175.045 150.917 175.1 150.585 175.1ZM151.127 173.74C151.402 173.74 151.635 173.665 151.825 173.515C152.018 173.363 152.165 173.15 152.266 172.877C152.371 172.604 152.423 172.285 152.423 171.918C152.423 171.552 152.372 171.233 152.27 170.963C152.169 170.693 152.022 170.484 151.829 170.337C151.636 170.19 151.402 170.116 151.127 170.116C150.846 170.116 150.609 170.193 150.417 170.345C150.224 170.498 150.078 170.709 149.979 170.979C149.88 171.249 149.831 171.562 149.831 171.918C149.831 172.277 149.88 172.594 149.979 172.869C150.081 173.142 150.227 173.356 150.417 173.511C150.609 173.664 150.846 173.74 151.127 173.74ZM157.769 175.1C157.301 175.1 156.877 174.98 156.497 174.739C156.12 174.496 155.82 174.139 155.598 173.668C155.379 173.194 155.269 172.614 155.269 171.926C155.269 171.22 155.383 170.633 155.61 170.165C155.837 169.694 156.14 169.342 156.517 169.109C156.897 168.874 157.313 168.756 157.765 168.756C158.11 168.756 158.398 168.815 158.628 168.933C158.86 169.048 159.048 169.192 159.189 169.366C159.334 169.537 159.444 169.706 159.519 169.872H159.571V166.782H161.276V175H159.591V174.013H159.519C159.438 174.184 159.325 174.354 159.177 174.522C159.033 174.688 158.844 174.826 158.612 174.936C158.382 175.045 158.101 175.1 157.769 175.1ZM158.311 173.74C158.586 173.74 158.819 173.665 159.009 173.515C159.202 173.363 159.349 173.15 159.45 172.877C159.555 172.604 159.607 172.285 159.607 171.918C159.607 171.552 159.556 171.233 159.454 170.963C159.353 170.693 159.206 170.484 159.013 170.337C158.82 170.19 158.586 170.116 158.311 170.116C158.03 170.116 157.793 170.193 157.6 170.345C157.408 170.498 157.262 170.709 157.163 170.979C157.064 171.249 157.015 171.562 157.015 171.918C157.015 172.277 157.064 172.594 157.163 172.869C157.265 173.142 157.41 173.356 157.6 173.511C157.793 173.664 158.03 173.74 158.311 173.74ZM165.491 175.12C164.857 175.12 164.311 174.992 163.853 174.735C163.399 174.476 163.048 174.109 162.802 173.636C162.556 173.159 162.433 172.596 162.433 171.946C162.433 171.312 162.556 170.756 162.802 170.277C163.048 169.798 163.395 169.425 163.841 169.157C164.291 168.89 164.818 168.756 165.422 168.756C165.829 168.756 166.208 168.822 166.558 168.953C166.911 169.081 167.219 169.275 167.481 169.535C167.746 169.794 167.952 170.12 168.099 170.514C168.246 170.904 168.32 171.362 168.32 171.886V172.356H163.115V171.296H166.71C166.71 171.05 166.657 170.832 166.55 170.642C166.443 170.452 166.294 170.304 166.105 170.197C165.917 170.087 165.699 170.032 165.45 170.032C165.191 170.032 164.961 170.092 164.76 170.213C164.562 170.33 164.407 170.49 164.295 170.69C164.182 170.888 164.125 171.109 164.122 171.352V172.36C164.122 172.665 164.178 172.928 164.291 173.15C164.406 173.372 164.568 173.543 164.776 173.664C164.985 173.784 165.232 173.844 165.519 173.844C165.709 173.844 165.882 173.818 166.04 173.764C166.198 173.711 166.333 173.63 166.446 173.523C166.558 173.416 166.644 173.285 166.702 173.13L168.283 173.234C168.203 173.614 168.039 173.946 167.79 174.23C167.544 174.51 167.225 174.73 166.835 174.888C166.447 175.043 165.999 175.12 165.491 175.12ZM171.706 175.1C171.238 175.1 170.814 174.98 170.434 174.739C170.057 174.496 169.757 174.139 169.535 173.668C169.316 173.194 169.206 172.614 169.206 171.926C169.206 171.22 169.32 170.633 169.547 170.165C169.775 169.694 170.077 169.342 170.454 169.109C170.834 168.874 171.25 168.756 171.702 168.756C172.047 168.756 172.335 168.815 172.565 168.933C172.798 169.048 172.985 169.192 173.127 169.366C173.271 169.537 173.381 169.706 173.456 169.872H173.508V166.782H175.214V175H173.528V174.013H173.456C173.376 174.184 173.262 174.354 173.115 174.522C172.97 174.688 172.782 174.826 172.549 174.936C172.319 175.045 172.038 175.1 171.706 175.1ZM172.248 173.74C172.524 173.74 172.756 173.665 172.946 173.515C173.139 173.363 173.286 173.15 173.388 172.877C173.492 172.604 173.544 172.285 173.544 171.918C173.544 171.552 173.493 171.233 173.392 170.963C173.29 170.693 173.143 170.484 172.95 170.337C172.758 170.19 172.524 170.116 172.248 170.116C171.967 170.116 171.73 170.193 171.538 170.345C171.345 170.498 171.199 170.709 171.1 170.979C171.001 171.249 170.952 171.562 170.952 171.918C170.952 172.277 171.001 172.594 171.1 172.869C171.202 173.142 171.348 173.356 171.538 173.511C171.73 173.664 171.967 173.74 172.248 173.74ZM178.662 166.782L178.505 172.536H177.036L176.876 166.782H178.662ZM177.771 175.104C177.506 175.104 177.278 175.011 177.089 174.823C176.899 174.633 176.805 174.406 176.808 174.141C176.805 173.879 176.899 173.654 177.089 173.467C177.278 173.28 177.506 173.186 177.771 173.186C178.025 173.186 178.248 173.28 178.441 173.467C178.633 173.654 178.731 173.879 178.734 174.141C178.731 174.318 178.684 174.48 178.593 174.627C178.505 174.771 178.389 174.888 178.244 174.976C178.1 175.062 177.942 175.104 177.771 175.104ZM181.282 175.104C181.017 175.104 180.79 175.011 180.6 174.823C180.412 174.633 180.319 174.406 180.319 174.141C180.319 173.879 180.412 173.654 180.6 173.467C180.79 173.28 181.017 173.186 181.282 173.186C181.539 173.186 181.763 173.28 181.956 173.467C182.149 173.654 182.245 173.879 182.245 174.141C182.245 174.318 182.199 174.48 182.108 174.627C182.02 174.771 181.904 174.888 181.759 174.976C181.615 175.062 181.456 175.104 181.282 175.104ZM184.648 175.104C184.383 175.104 184.155 175.011 183.965 174.823C183.778 174.633 183.685 174.406 183.685 174.141C183.685 173.879 183.778 173.654 183.965 173.467C184.155 173.28 184.383 173.186 184.648 173.186C184.904 173.186 185.129 173.28 185.322 173.467C185.514 173.654 185.611 173.879 185.611 174.141C185.611 174.318 185.565 174.48 185.474 174.627C185.386 174.771 185.27 174.888 185.125 174.976C184.981 175.062 184.821 175.104 184.648 175.104ZM188.013 175.104C187.748 175.104 187.521 175.011 187.331 174.823C187.144 174.633 187.05 174.406 187.05 174.141C187.05 173.879 187.144 173.654 187.331 173.467C187.521 173.28 187.748 173.186 188.013 173.186C188.27 173.186 188.495 173.28 188.687 173.467C188.88 173.654 188.976 173.879 188.976 174.141C188.976 174.318 188.931 174.48 188.84 174.627C188.752 174.771 188.635 174.888 188.491 174.976C188.346 175.062 188.187 175.104 188.013 175.104Z" fill="#4A6600"/>
<g clip-path="url(#clip0_3_4)">
<mask id="path-8-inside-1_3_4" fill="white">
<path d="M15.0817 50C15.0817 44.4772 19.5588 40 25.0817 40H304.082C309.605 40 314.082 44.4772 314.082 50V71H15.0817V50Z"/>
</mask>
<rect width="99.1333" height="30" transform="translate(15.8817 40.8)" fill="#B8F500"/>
<path d="M15.8817 40.8H115.015V60.8C115.015 66.3228 110.538 70.8 105.015 70.8H25.8817C20.3588 70.8 15.8817 66.3228 15.8817 60.8V40.8Z" fill="#F5F5F5"/>
<path d="M64.9362 55.6909C64.9362 56.5871 64.7663 57.3495 64.4265 57.9782C64.0895 58.6069 63.6293 59.087 63.0462 59.4188C62.4656 59.7478 61.8129 59.9123 61.0879 59.9123C60.3576 59.9123 59.7022 59.7465 59.1216 59.4148C58.5411 59.083 58.0823 58.6028 57.7453 57.9742C57.4082 57.3455 57.2397 56.5844 57.2397 55.6909C57.2397 54.7947 57.4082 54.0323 57.7453 53.4036C58.0823 52.7749 58.5411 52.2961 59.1216 51.967C59.7022 51.6353 60.3576 51.4694 61.0879 51.4694C61.8129 51.4694 62.4656 51.6353 63.0462 51.967C63.6293 52.2961 64.0895 52.7749 64.4265 53.4036C64.7663 54.0323 64.9362 54.7947 64.9362 55.6909ZM63.1746 55.6909C63.1746 55.1104 63.0876 54.6208 62.9137 54.2222C62.7425 53.8236 62.5004 53.5213 62.1874 53.3153C61.8744 53.1093 61.5079 53.0063 61.0879 53.0063C60.6679 53.0063 60.3014 53.1093 59.9884 53.3153C59.6754 53.5213 59.432 53.8236 59.2581 54.2222C59.0869 54.6208 59.0013 55.1104 59.0013 55.6909C59.0013 56.2714 59.0869 56.761 59.2581 57.1596C59.432 57.5582 59.6754 57.8605 59.9884 58.0665C60.3014 58.2725 60.6679 58.3754 61.0879 58.3754C61.5079 58.3754 61.8744 58.2725 62.1874 58.0665C62.5004 57.8605 62.7425 57.5582 62.9137 57.1596C63.0876 56.761 63.1746 56.2714 63.1746 55.6909ZM69.5057 53.6364V54.9204H65.7016V53.6364H69.5057ZM66.5724 59.8V53.1909C66.5724 52.7442 66.6593 52.3737 66.8332 52.0794C67.0098 51.7851 67.2505 51.5644 67.5555 51.4173C67.8605 51.2701 68.2069 51.1966 68.5948 51.1966C68.857 51.1966 69.0964 51.2166 69.3131 51.2568C69.5325 51.2969 69.6957 51.333 69.8027 51.3651L69.4977 52.6492C69.4308 52.6278 69.3479 52.6077 69.2489 52.589C69.1526 52.5703 69.0536 52.5609 68.952 52.5609C68.7005 52.5609 68.5253 52.6198 68.4263 52.7375C68.3273 52.8525 68.2778 53.0144 68.2778 53.223V59.8H66.5724ZM73.8646 53.6364V54.9204H70.0605V53.6364H73.8646ZM70.9313 59.8V53.1909C70.9313 52.7442 71.0182 52.3737 71.1921 52.0794C71.3687 51.7851 71.6094 51.5644 71.9144 51.4173C72.2194 51.2701 72.5658 51.1966 72.9537 51.1966C73.2159 51.1966 73.4553 51.2166 73.672 51.2568C73.8914 51.2969 74.0546 51.333 74.1616 51.3651L73.8566 52.6492C73.7897 52.6278 73.7068 52.6077 73.6078 52.589C73.5115 52.5703 73.4125 52.5609 73.3109 52.5609C73.0594 52.5609 72.8842 52.6198 72.7852 52.7375C72.6862 52.8525 72.6367 53.0144 72.6367 53.223V59.8H70.9313Z" fill="#4A6600"/>
<rect width="99.1333" height="30" transform="translate(115.015 40.8)" fill="#F5F5F5"/>
<path d="M115.015 50.8C115.015 45.2771 119.492 40.8 125.015 40.8H204.148C209.671 40.8 214.148 45.2771 214.148 50.8V70.8H115.015V50.8Z" fill="#B8F500"/>
<path d="M123.037 59.8V51.2182H126.473C127.104 51.2182 127.631 51.3118 128.052 51.4989C128.474 51.6861 128.791 51.9459 129.004 52.2783C129.216 52.608 129.322 52.9879 129.322 53.4181C129.322 53.7533 129.255 54.048 129.121 54.3023C128.987 54.5537 128.802 54.7604 128.568 54.9224C128.336 55.0817 128.071 55.1948 127.772 55.2618V55.3457C128.098 55.3596 128.404 55.4518 128.689 55.6222C128.977 55.7926 129.21 56.0315 129.389 56.3388C129.568 56.6433 129.657 57.0064 129.657 57.4283C129.657 57.8836 129.544 58.2901 129.318 58.6476C129.094 59.0024 128.763 59.2832 128.325 59.4899C127.886 59.6966 127.346 59.8 126.703 59.8H123.037ZM124.851 58.3166H126.33C126.836 58.3166 127.205 58.2202 127.436 58.0275C127.668 57.8319 127.784 57.5721 127.784 57.2481C127.784 57.0106 127.727 56.8011 127.612 56.6195C127.498 56.4379 127.334 56.2955 127.122 56.1921C126.913 56.0887 126.663 56.0371 126.372 56.0371H124.851V58.3166ZM124.851 54.8093H126.196C126.445 54.8093 126.665 54.766 126.858 54.6794C127.054 54.59 127.207 54.4643 127.319 54.3023C127.434 54.1402 127.491 53.9461 127.491 53.7198C127.491 53.4097 127.381 53.1597 127.16 52.9697C126.942 52.7798 126.632 52.6848 126.23 52.6848H124.851V54.8093ZM132.589 51.2182V59.8H130.804V51.2182H132.589ZM135.855 59.9215C135.444 59.9215 135.078 59.8503 134.757 59.7078C134.436 59.5625 134.181 59.3488 133.994 59.0667C133.81 58.7817 133.718 58.427 133.718 58.0023C133.718 57.6448 133.783 57.3444 133.915 57.1014C134.046 56.8584 134.225 56.6628 134.451 56.5148C134.677 56.3667 134.934 56.255 135.222 56.1795C135.513 56.1041 135.817 56.051 136.136 56.0203C136.51 55.9812 136.812 55.9449 137.041 55.9114C137.27 55.875 137.436 55.822 137.539 55.7521C137.643 55.6823 137.694 55.5789 137.694 55.442V55.4169C137.694 55.1515 137.611 54.9462 137.443 54.8009C137.278 54.6556 137.043 54.583 136.739 54.583C136.418 54.583 136.162 54.6542 135.972 54.7967C135.782 54.9364 135.656 55.1124 135.595 55.3247L133.944 55.1906C134.028 54.7995 134.193 54.4615 134.438 54.1766C134.684 53.8888 135.001 53.6681 135.39 53.5145C135.781 53.358 136.233 53.2798 136.747 53.2798C137.105 53.2798 137.447 53.3217 137.774 53.4055C138.104 53.4893 138.396 53.6192 138.65 53.7952C138.907 53.9712 139.109 54.1975 139.257 54.4741C139.405 54.7478 139.479 55.0761 139.479 55.4588V59.8H137.787V58.9074H137.736C137.633 59.1086 137.495 59.286 137.321 59.4396C137.148 59.5905 136.94 59.7092 136.697 59.7958C136.454 59.8796 136.173 59.9215 135.855 59.9215ZM136.366 58.6895C136.629 58.6895 136.86 58.6379 137.062 58.5345C137.263 58.4283 137.421 58.2859 137.535 58.1071C137.65 57.9283 137.707 57.7258 137.707 57.4995V56.8165C137.651 56.8528 137.574 56.8863 137.476 56.917C137.381 56.945 137.274 56.9715 137.154 56.9966C137.034 57.019 136.914 57.0399 136.793 57.0595C136.673 57.0763 136.564 57.0916 136.467 57.1056C136.257 57.1363 136.074 57.1852 135.918 57.2523C135.761 57.3193 135.64 57.4101 135.553 57.5246C135.466 57.6364 135.423 57.7761 135.423 57.9437C135.423 58.1867 135.511 58.3725 135.687 58.501C135.866 58.6267 136.092 58.6895 136.366 58.6895ZM143.772 59.9257C143.113 59.9257 142.546 59.786 142.071 59.5067C141.599 59.2245 141.236 58.8334 140.982 58.3334C140.73 57.8333 140.605 57.2578 140.605 56.6069C140.605 55.9477 140.732 55.3694 140.986 54.8721C141.243 54.3721 141.607 53.9824 142.08 53.703C142.552 53.4209 143.113 53.2798 143.764 53.2798C144.326 53.2798 144.817 53.3818 145.239 53.5857C145.661 53.7896 145.995 54.076 146.241 54.4447C146.486 54.8135 146.622 55.2465 146.647 55.7437H144.962C144.915 55.4225 144.789 55.1641 144.585 54.9685C144.384 54.7702 144.12 54.671 143.793 54.671C143.517 54.671 143.275 54.7464 143.068 54.8973C142.865 55.0453 142.705 55.2618 142.591 55.5468C142.476 55.8317 142.419 56.1767 142.419 56.5818C142.419 56.9925 142.475 57.3417 142.587 57.6294C142.701 57.9171 142.862 58.1364 143.068 58.2873C143.275 58.4381 143.517 58.5136 143.793 58.5136C143.997 58.5136 144.18 58.4716 144.342 58.3878C144.507 58.304 144.643 58.1825 144.749 58.0233C144.858 57.8613 144.929 57.6671 144.962 57.4408H146.647C146.619 57.9325 146.485 58.3655 146.245 58.7398C146.007 59.1114 145.679 59.4019 145.26 59.6114C144.841 59.8209 144.345 59.9257 143.772 59.9257ZM149.407 57.9479L149.412 55.8066H149.671L151.733 53.3636H153.782L151.012 56.5986H150.589L149.407 57.9479ZM147.79 59.8V51.2182H149.575V59.8H147.79ZM151.813 59.8L149.919 56.9966L151.109 55.7354L153.904 59.8H151.813ZM156.443 51.2182V59.8H154.658V51.2182H156.443ZM157.873 59.8V53.3636H159.658V59.8H157.873ZM158.77 52.5339C158.504 52.5339 158.277 52.4459 158.087 52.2699C157.899 52.0912 157.806 51.8774 157.806 51.6288C157.806 51.383 157.899 51.1721 158.087 50.9961C158.277 50.8173 158.504 50.7279 158.77 50.7279C159.035 50.7279 159.261 50.8173 159.448 50.9961C159.638 51.1721 159.733 51.383 159.733 51.6288C159.733 51.8774 159.638 52.0912 159.448 52.2699C159.261 52.4459 159.035 52.5339 158.77 52.5339ZM166.443 55.199L164.809 55.2996C164.781 55.1599 164.721 55.0342 164.629 54.9224C164.537 54.8079 164.415 54.7171 164.264 54.6501C164.116 54.5802 163.939 54.5453 163.732 54.5453C163.456 54.5453 163.222 54.604 163.032 54.7213C162.842 54.8358 162.747 54.9895 162.747 55.1822C162.747 55.3359 162.809 55.4658 162.932 55.5719C163.055 55.6781 163.266 55.7633 163.564 55.8275L164.729 56.0622C165.355 56.1907 165.822 56.3974 166.129 56.6824C166.436 56.9673 166.59 57.3417 166.59 57.8054C166.59 58.2272 166.466 58.5974 166.217 58.9158C165.971 59.2343 165.633 59.4829 165.203 59.6617C164.775 59.8377 164.282 59.9257 163.724 59.9257C162.872 59.9257 162.193 59.7483 161.687 59.3935C161.184 59.0359 160.89 58.5499 160.803 57.9353L162.559 57.8431C162.612 58.1029 162.74 58.3012 162.944 58.4381C163.148 58.5722 163.409 58.6393 163.728 58.6393C164.041 58.6393 164.292 58.5792 164.482 58.4591C164.675 58.3362 164.773 58.1783 164.775 57.9856C164.773 57.8235 164.704 57.6908 164.57 57.5875C164.436 57.4813 164.229 57.4003 163.95 57.3444L162.835 57.1224C162.207 56.9966 161.739 56.7788 161.432 56.4687C161.127 56.1586 160.975 55.7633 160.975 55.2828C160.975 54.8694 161.087 54.5132 161.31 54.2143C161.536 53.9154 161.853 53.6849 162.261 53.5229C162.672 53.3608 163.152 53.2798 163.703 53.2798C164.516 53.2798 165.155 53.4516 165.622 53.7952C166.091 54.1388 166.365 54.6068 166.443 55.199ZM171.137 53.3636V54.7045H167.261V53.3636H171.137ZM168.141 51.8216H169.926V57.8221C169.926 57.987 169.952 58.1155 170.002 58.2077C170.052 58.2971 170.122 58.3599 170.211 58.3962C170.304 58.4325 170.41 58.4507 170.53 58.4507C170.614 58.4507 170.697 58.4437 170.781 58.4297C170.865 58.413 170.929 58.4004 170.974 58.392L171.255 59.7204C171.165 59.7483 171.04 59.7804 170.878 59.8167C170.716 59.8559 170.519 59.8796 170.287 59.888C169.857 59.9047 169.479 59.8475 169.155 59.7162C168.834 59.5849 168.584 59.381 168.405 59.1044C168.227 58.8278 168.139 58.4786 168.141 58.0568V51.8216ZM175.031 59.8V53.3636H176.733V54.4992H176.808C176.942 54.1221 177.166 53.8246 177.478 53.6067C177.791 53.3888 178.166 53.2798 178.601 53.2798C179.043 53.2798 179.419 53.3902 179.729 53.6109C180.039 53.8288 180.246 54.1249 180.349 54.4992H180.416C180.547 54.1305 180.785 53.8357 181.128 53.615C181.475 53.3916 181.884 53.2798 182.356 53.2798C182.957 53.2798 183.444 53.4712 183.818 53.8539C184.196 54.2338 184.384 54.773 184.384 55.4714V59.8H182.603V55.8234C182.603 55.4658 182.508 55.1976 182.318 55.0188C182.128 54.84 181.891 54.7506 181.606 54.7506C181.282 54.7506 181.029 54.854 180.848 55.0607C180.666 55.2646 180.575 55.5342 180.575 55.8694V59.8H178.845V55.7856C178.845 55.47 178.754 55.2185 178.572 55.0314C178.393 54.8442 178.157 54.7506 177.864 54.7506C177.666 54.7506 177.487 54.8009 177.328 54.9015C177.171 54.9993 177.047 55.1375 176.955 55.3163C176.863 55.4923 176.816 55.699 176.816 55.9365V59.8H175.031ZM188.702 59.9257C188.051 59.9257 187.489 59.7874 187.014 59.5109C186.541 59.2315 186.177 58.8432 185.92 58.3459C185.663 57.8459 185.534 57.2662 185.534 56.6069C185.534 55.9421 185.663 55.361 185.92 54.8638C186.177 54.3637 186.541 53.9754 187.014 53.6989C187.489 53.4195 188.051 53.2798 188.702 53.2798C189.353 53.2798 189.915 53.4195 190.387 53.6989C190.862 53.9754 191.228 54.3637 191.485 54.8638C191.742 55.361 191.87 55.9421 191.87 56.6069C191.87 57.2662 191.742 57.8459 191.485 58.3459C191.228 58.8432 190.862 59.2315 190.387 59.5109C189.915 59.7874 189.353 59.9257 188.702 59.9257ZM188.711 58.5429C189.007 58.5429 189.254 58.4591 189.452 58.2915C189.651 58.1211 189.8 57.8892 189.901 57.5959C190.004 57.3025 190.056 56.9687 190.056 56.5944C190.056 56.22 190.004 55.8862 189.901 55.5929C189.8 55.2996 189.651 55.0677 189.452 54.8973C189.254 54.7269 189.007 54.6417 188.711 54.6417C188.412 54.6417 188.16 54.7269 187.956 54.8973C187.755 55.0677 187.603 55.2996 187.5 55.5929C187.399 55.8862 187.349 56.22 187.349 56.5944C187.349 56.9687 187.399 57.3025 187.5 57.5959C187.603 57.8892 187.755 58.1211 187.956 58.2915C188.16 58.4591 188.412 58.5429 188.711 58.5429ZM195.403 59.9047C194.914 59.9047 194.471 59.779 194.074 59.5276C193.68 59.2734 193.368 58.9005 193.136 58.4088C192.907 57.9143 192.792 57.3081 192.792 56.5902C192.792 55.8527 192.911 55.2395 193.148 54.7506C193.386 54.259 193.701 53.8916 194.095 53.6486C194.492 53.4027 194.926 53.2798 195.398 53.2798C195.759 53.2798 196.059 53.3413 196.299 53.4642C196.542 53.5843 196.738 53.7352 196.886 53.9167C197.037 54.0955 197.151 54.2715 197.23 54.4447H197.284V51.2182H199.065V59.8H197.305V58.7692H197.23C197.146 58.948 197.027 59.1253 196.873 59.3013C196.723 59.4745 196.526 59.6184 196.283 59.7329C196.042 59.8475 195.749 59.9047 195.403 59.9047ZM195.968 58.4842C196.256 58.4842 196.499 58.406 196.697 58.2496C196.899 58.0903 197.052 57.8682 197.158 57.5833C197.267 57.2984 197.322 56.9645 197.322 56.5818C197.322 56.1991 197.269 55.8667 197.163 55.5845C197.056 55.3024 196.903 55.0845 196.702 54.9308C196.501 54.7772 196.256 54.7003 195.968 54.7003C195.675 54.7003 195.428 54.78 195.227 54.9392C195.026 55.0984 194.873 55.3191 194.77 55.6013C194.667 55.8834 194.615 56.2103 194.615 56.5818C194.615 56.9561 194.667 57.2872 194.77 57.5749C194.876 57.8599 195.028 58.0833 195.227 58.2454C195.428 58.4046 195.675 58.4842 195.968 58.4842ZM203.466 59.9257C202.804 59.9257 202.234 59.7916 201.756 59.5234C201.281 59.2524 200.915 58.8697 200.658 58.3753C200.401 57.878 200.273 57.29 200.273 56.6111C200.273 55.9491 200.401 55.368 200.658 54.868C200.915 54.3679 201.277 53.9782 201.744 53.6989C202.213 53.4195 202.763 53.2798 203.395 53.2798C203.819 53.2798 204.215 53.3483 204.581 53.4851C204.949 53.6192 205.271 53.8218 205.544 54.0927C205.821 54.3637 206.036 54.7045 206.19 55.1152C206.343 55.523 206.42 56.0007 206.42 56.5483V57.0386H200.985V55.9323H204.74C204.74 55.6753 204.684 55.4476 204.572 55.2493C204.46 55.0509 204.305 54.8959 204.107 54.7841C203.912 54.6696 203.684 54.6123 203.424 54.6123C203.153 54.6123 202.913 54.6752 202.703 54.8009C202.497 54.9238 202.335 55.09 202.217 55.2996C202.1 55.5063 202.04 55.7368 202.037 55.991V57.0427C202.037 57.3612 202.096 57.6364 202.213 57.8682C202.333 58.1001 202.502 58.2789 202.72 58.4046C202.938 58.5303 203.196 58.5932 203.495 58.5932C203.694 58.5932 203.875 58.5652 204.04 58.5094C204.205 58.4535 204.346 58.3697 204.463 58.2579C204.581 58.1462 204.67 58.0093 204.731 57.8473L206.382 57.9562C206.299 58.3529 206.127 58.6993 205.867 58.9954C205.61 59.2888 205.278 59.5178 204.87 59.6827C204.465 59.8447 203.997 59.9257 203.466 59.9257Z" fill="#4A6600"/>
<rect width="99.1333" height="30" transform="translate(214.148 40.8)" fill="#B8F500"/>
<path d="M214.148 40.8H313.282V60.8C313.282 66.3228 308.804 70.8 303.282 70.8H224.148C218.625 70.8 214.148 66.3228 214.148 60.8V40.8Z" fill="#F5F5F5"/>
<path d="M224.478 59.8L222.126 51.5818H224.025L225.385 57.292H225.453L226.954 51.5818H228.579L230.076 57.304H230.148L231.508 51.5818H233.406L231.055 59.8H229.362L227.797 54.4269H227.732L226.171 59.8H224.478ZM236.014 56.2366V59.8H234.304V51.5818H235.966V54.7238H236.038C236.177 54.36 236.402 54.0751 236.712 53.8691C237.022 53.6604 237.412 53.5561 237.88 53.5561C238.308 53.5561 238.681 53.6497 238.999 53.837C239.32 54.0216 239.569 54.2878 239.746 54.6355C239.925 54.9806 240.013 55.394 240.01 55.8755V59.8H238.301V56.1805C238.304 55.8006 238.207 55.505 238.012 55.2936C237.819 55.0823 237.549 54.9766 237.201 54.9766C236.969 54.9766 236.763 55.0261 236.584 55.1251C236.407 55.2241 236.268 55.3685 236.166 55.5585C236.067 55.7457 236.016 55.9718 236.014 56.2366ZM241.356 59.8V53.6364H243.065V59.8H241.356ZM242.214 52.8418C241.96 52.8418 241.742 52.7576 241.56 52.589C241.381 52.4178 241.292 52.2132 241.292 51.9751C241.292 51.7396 241.381 51.5377 241.56 51.3691C241.742 51.1979 241.96 51.1123 242.214 51.1123C242.469 51.1123 242.685 51.1979 242.865 51.3691C243.046 51.5377 243.137 51.7396 243.137 51.9751C243.137 52.2132 243.046 52.4178 242.865 52.589C242.685 52.7576 242.469 52.8418 242.214 52.8418ZM247.713 53.6364V54.9204H244.001V53.6364H247.713ZM244.844 52.1596H246.553V57.906C246.553 58.0638 246.577 58.1868 246.626 58.2751C246.674 58.3607 246.741 58.4209 246.826 58.4557C246.914 58.4905 247.016 58.5079 247.131 58.5079C247.211 58.5079 247.292 58.5012 247.372 58.4878C247.452 58.4718 247.514 58.4597 247.556 58.4517L247.825 59.7237C247.74 59.7505 247.619 59.7813 247.464 59.816C247.309 59.8535 247.12 59.8762 246.898 59.8843C246.486 59.9003 246.125 59.8455 245.815 59.7197C245.507 59.594 245.268 59.3987 245.097 59.1339C244.925 58.869 244.841 58.5346 244.844 58.1307V52.1596ZM251.569 59.9204C250.935 59.9204 250.39 59.792 249.932 59.5351C249.477 59.2757 249.127 58.9091 248.881 58.4356C248.635 57.9595 248.512 57.3963 248.512 56.7463C248.512 56.1122 248.635 55.5558 248.881 55.0769C249.127 54.5981 249.473 54.2249 249.92 53.9574C250.369 53.6899 250.896 53.5561 251.501 53.5561C251.908 53.5561 252.286 53.6216 252.637 53.7527C252.99 53.8811 253.297 54.0751 253.56 54.3346C253.824 54.5941 254.03 54.9204 254.178 55.3137C254.325 55.7043 254.398 56.1617 254.398 56.6861V57.1556H249.194V56.0962H252.789C252.789 55.8501 252.736 55.632 252.629 55.4421C252.522 55.2522 252.373 55.1037 252.183 54.9967C251.996 54.887 251.778 54.8322 251.529 54.8322C251.27 54.8322 251.04 54.8924 250.839 55.0127C250.641 55.1304 250.486 55.2896 250.373 55.4903C250.261 55.6882 250.204 55.9089 250.201 56.1524V57.1596C250.201 57.4645 250.257 57.7281 250.369 57.9501C250.484 58.1721 250.646 58.3433 250.855 58.4637C251.064 58.5841 251.311 58.6443 251.597 58.6443C251.787 58.6443 251.961 58.6176 252.119 58.5641C252.277 58.5105 252.412 58.4303 252.524 58.3233C252.637 58.2163 252.722 58.0852 252.781 57.93L254.362 58.0344C254.282 58.4142 254.117 58.746 253.869 59.0295C253.622 59.3104 253.304 59.5298 252.914 59.6876C252.526 59.8428 252.078 59.9204 251.569 59.9204ZM257.223 51.5818V59.8H255.514V51.5818H257.223ZM258.593 59.8V53.6364H260.302V59.8H258.593ZM259.451 52.8418C259.197 52.8418 258.979 52.7576 258.797 52.589C258.618 52.4178 258.528 52.2132 258.528 51.9751C258.528 51.7396 258.618 51.5377 258.797 51.3691C258.979 51.1979 259.197 51.1123 259.451 51.1123C259.706 51.1123 259.922 51.1979 260.101 51.3691C260.283 51.5377 260.374 51.7396 260.374 51.9751C260.374 52.2132 260.283 52.4178 260.101 52.589C259.922 52.7576 259.706 52.8418 259.451 52.8418ZM266.8 55.394L265.235 55.4903C265.208 55.3565 265.151 55.2361 265.062 55.1291C264.974 55.0194 264.858 54.9325 264.713 54.8683C264.571 54.8014 264.401 54.768 264.204 54.768C263.939 54.768 263.715 54.8241 263.533 54.9365C263.351 55.0462 263.261 55.1933 263.261 55.3779C263.261 55.525 263.319 55.6494 263.437 55.7511C263.555 55.8527 263.757 55.9343 264.043 55.9959L265.159 56.2206C265.758 56.3436 266.205 56.5416 266.499 56.8145C266.793 57.0873 266.94 57.4458 266.94 57.8899C266.94 58.2939 266.821 58.6483 266.583 58.9533C266.348 59.2583 266.024 59.4964 265.612 59.6676C265.203 59.8361 264.731 59.9204 264.195 59.9204C263.38 59.9204 262.729 59.7505 262.245 59.4107C261.764 59.0683 261.482 58.6028 261.399 58.0143L263.08 57.926C263.131 58.1748 263.254 58.3647 263.449 58.4958C263.644 58.6242 263.895 58.6884 264.2 58.6884C264.499 58.6884 264.74 58.6309 264.922 58.5159C265.106 58.3982 265.2 58.247 265.203 58.0625C265.2 57.9073 265.134 57.7802 265.006 57.6812C264.878 57.5796 264.68 57.502 264.412 57.4485L263.345 57.2358C262.743 57.1154 262.295 56.9068 262.001 56.6098C261.709 56.3129 261.563 55.9343 261.563 55.4742C261.563 55.0783 261.67 54.7372 261.884 54.4509C262.101 54.1647 262.404 53.944 262.795 53.7888C263.188 53.6337 263.648 53.5561 264.175 53.5561C264.954 53.5561 265.567 53.7206 266.013 54.0497C266.463 54.3787 266.725 54.8268 266.8 55.394ZM271.295 53.6364V54.9204H267.583V53.6364H271.295ZM268.426 52.1596H270.135V57.906C270.135 58.0638 270.159 58.1868 270.208 58.2751C270.256 58.3607 270.323 58.4209 270.408 58.4557C270.497 58.4905 270.598 58.5079 270.713 58.5079C270.794 58.5079 270.874 58.5012 270.954 58.4878C271.034 58.4718 271.096 58.4597 271.139 58.4517L271.407 59.7237C271.322 59.7505 271.201 59.7813 271.046 59.816C270.891 59.8535 270.703 59.8762 270.481 59.8843C270.069 59.9003 269.707 59.8455 269.397 59.7197C269.089 59.594 268.85 59.3987 268.679 59.1339C268.508 58.869 268.423 58.5346 268.426 58.1307V52.1596ZM275.024 59.8V53.6364H276.653V54.7238H276.725C276.854 54.3627 277.068 54.0778 277.367 53.8691C277.667 53.6604 278.026 53.5561 278.443 53.5561C278.866 53.5561 279.225 53.6618 279.522 53.8731C279.819 54.0818 280.017 54.3653 280.116 54.7238H280.18C280.306 54.3707 280.534 54.0885 280.863 53.8771C281.194 53.6631 281.586 53.5561 282.038 53.5561C282.614 53.5561 283.08 53.7393 283.439 54.1058C283.8 54.4697 283.981 54.986 283.981 55.6548V59.8H282.275V55.9919C282.275 55.6494 282.184 55.3926 282.002 55.2214C281.82 55.0502 281.593 54.9646 281.32 54.9646C281.01 54.9646 280.768 55.0636 280.594 55.2615C280.42 55.4568 280.333 55.715 280.333 56.036V59.8H278.676V55.9557C278.676 55.6534 278.589 55.4127 278.415 55.2334C278.244 55.0542 278.018 54.9646 277.737 54.9646C277.547 54.9646 277.375 55.0127 277.223 55.109C277.073 55.2027 276.954 55.3351 276.866 55.5063C276.778 55.6748 276.733 55.8728 276.733 56.1002V59.8H275.024ZM288.116 59.9204C287.492 59.9204 286.953 59.7879 286.499 59.5231C286.046 59.2556 285.697 58.8837 285.451 58.4076C285.205 57.9287 285.082 57.3736 285.082 56.7422C285.082 56.1056 285.205 55.5491 285.451 55.0729C285.697 54.5941 286.046 54.2222 286.499 53.9574C286.953 53.6899 287.492 53.5561 288.116 53.5561C288.739 53.5561 289.277 53.6899 289.729 53.9574C290.184 54.2222 290.534 54.5941 290.78 55.0729C291.026 55.5491 291.149 56.1056 291.149 56.7422C291.149 57.3736 291.026 57.9287 290.78 58.4076C290.534 58.8837 290.184 59.2556 289.729 59.5231C289.277 59.7879 288.739 59.9204 288.116 59.9204ZM288.124 58.5962C288.407 58.5962 288.644 58.5159 288.834 58.3554C289.024 58.1922 289.167 57.9702 289.263 57.6893C289.362 57.4084 289.412 57.0887 289.412 56.7302C289.412 56.3717 289.362 56.052 289.263 55.7712C289.167 55.4903 289.024 55.2682 288.834 55.105C288.644 54.9418 288.407 54.8603 288.124 54.8603C287.837 54.8603 287.597 54.9418 287.401 55.105C287.209 55.2682 287.063 55.4903 286.964 55.7712C286.868 56.052 286.82 56.3717 286.82 56.7302C286.82 57.0887 286.868 57.4084 286.964 57.6893C287.063 57.9702 287.209 58.1922 287.401 58.3554C287.597 58.5159 287.837 58.5962 288.124 58.5962ZM294.532 59.9003C294.064 59.9003 293.64 59.7799 293.26 59.5392C292.883 59.2957 292.583 58.9386 292.361 58.4677C292.142 57.9942 292.032 57.4137 292.032 56.7262C292.032 56.0199 292.146 55.4327 292.373 54.9646C292.601 54.4937 292.903 54.142 293.28 53.9092C293.66 53.6738 294.076 53.5561 294.528 53.5561C294.873 53.5561 295.161 53.6149 295.391 53.7327C295.624 53.8477 295.811 53.9922 295.953 54.166C296.097 54.3373 296.207 54.5058 296.282 54.6716H296.334V51.5818H298.039V59.8H296.354V58.8128H296.282C296.201 58.9841 296.088 59.1539 295.941 59.3225C295.796 59.4883 295.608 59.6261 295.375 59.7358C295.145 59.8455 294.864 59.9003 294.532 59.9003ZM295.074 58.54C295.349 58.54 295.582 58.4651 295.772 58.3153C295.965 58.1628 296.112 57.9501 296.214 57.6772C296.318 57.4044 296.37 57.0847 296.37 56.7182C296.37 56.3517 296.319 56.0333 296.218 55.7631C296.116 55.4929 295.969 55.2843 295.776 55.1371C295.583 54.99 295.349 54.9164 295.074 54.9164C294.793 54.9164 294.556 54.9927 294.364 55.1452C294.171 55.2976 294.025 55.509 293.926 55.7792C293.827 56.0494 293.778 56.3624 293.778 56.7182C293.778 57.0766 293.827 57.3937 293.926 57.6692C294.028 57.9421 294.174 58.1561 294.364 58.3112C294.556 58.4637 294.793 58.54 295.074 58.54ZM302.254 59.9204C301.62 59.9204 301.074 59.792 300.617 59.5351C300.162 59.2757 299.811 58.9091 299.565 58.4356C299.319 57.9595 299.196 57.3963 299.196 56.7463C299.196 56.1122 299.319 55.5558 299.565 55.0769C299.811 54.5981 300.158 54.2249 300.604 53.9574C301.054 53.6899 301.581 53.5561 302.186 53.5561C302.592 53.5561 302.971 53.6216 303.321 53.7527C303.674 53.8811 303.982 54.0751 304.244 54.3346C304.509 54.5941 304.715 54.9204 304.862 55.3137C305.009 55.7043 305.083 56.1617 305.083 56.6861V57.1556H299.878V56.0962H303.474C303.474 55.8501 303.42 55.632 303.313 55.4421C303.206 55.2522 303.058 55.1037 302.868 54.9967C302.68 54.887 302.462 54.8322 302.214 54.8322C301.954 54.8322 301.724 54.8924 301.523 55.0127C301.325 55.1304 301.17 55.2896 301.058 55.4903C300.946 55.6882 300.888 55.9089 300.885 56.1524V57.1596C300.885 57.4645 300.942 57.7281 301.054 57.9501C301.169 58.1721 301.331 58.3433 301.539 58.4637C301.748 58.5841 301.996 58.6443 302.282 58.6443C302.472 58.6443 302.646 58.6176 302.804 58.5641C302.961 58.5105 303.096 58.4303 303.209 58.3233C303.321 58.2163 303.407 58.0852 303.466 57.93L305.047 58.0344C304.966 58.4142 304.802 58.746 304.553 59.0295C304.307 59.3104 303.989 59.5298 303.598 59.6876C303.21 59.8428 302.762 59.9204 302.254 59.9204Z" fill="#4A6600"/>
</g>
<path d="M314.082 71V72H315.082V71H314.082ZM15.0817 71H14.0817V72H15.0817V71ZM25.0817 40V41H304.082V40V39H25.0817V40ZM314.082 50H313.082V71H314.082H315.082V50H314.082ZM314.082 71V70H15.0817V71V72H314.082V71ZM15.0817 71H16.0817V50H15.0817H14.0817V71H15.0817ZM304.082 40V41C309.052 41 313.082 45.0294 313.082 50H314.082H315.082C315.082 43.9249 310.157 39 304.082 39V40ZM25.0817 40V39C19.0065 39 14.0817 43.9249 14.0817 50H15.0817H16.0817C16.0817 45.0294 20.1111 41 25.0817 41V40Z" fill="#B8F500" mask="url(#path-8-inside-1_3_4)"/>
<path d="M17.6862 15.1909V24.5H15.9998V15.1909H17.6862ZM21.0851 20.4091V24.5H19.4396V17.5182H21.0123V18.7045H21.0942C21.2548 18.3136 21.5108 18.003 21.8623 17.7727C22.2169 17.5424 22.6548 17.4273 23.176 17.4273C23.6578 17.4273 24.0775 17.5303 24.4351 17.7364C24.7957 17.9424 25.0745 18.2409 25.2714 18.6318C25.4714 19.0227 25.5699 19.497 25.5669 20.0545V24.5H23.9214V20.3091C23.9214 19.8424 23.8002 19.4773 23.5578 19.2136C23.3184 18.95 22.9866 18.8182 22.5623 18.8182C22.2745 18.8182 22.0184 18.8818 21.7942 19.0091C21.573 19.1333 21.3987 19.3136 21.2714 19.55C21.1472 19.7864 21.0851 20.0727 21.0851 20.4091ZM30.726 17.5182V18.7909H26.7123V17.5182H30.726ZM27.7033 15.8455H29.3487V22.4C29.3487 22.6212 29.382 22.7909 29.4487 22.9091C29.5184 23.0242 29.6093 23.103 29.7214 23.1455C29.8336 23.1879 29.9578 23.2091 30.0942 23.2091C30.1972 23.2091 30.2911 23.2015 30.376 23.1864C30.4639 23.1712 30.5305 23.1576 30.576 23.1455L30.8533 24.4318C30.7654 24.4621 30.6396 24.4955 30.476 24.5318C30.3154 24.5682 30.1184 24.5894 29.8851 24.5955C29.473 24.6076 29.1017 24.5455 28.7714 24.4091C28.4411 24.2697 28.179 24.0545 27.9851 23.7636C27.7942 23.4727 27.7002 23.1091 27.7033 22.6727V15.8455ZM35.118 24.6364C34.418 24.6364 33.8135 24.4909 33.3044 24.2C32.7983 23.9061 32.4089 23.4909 32.1362 22.9545C31.8635 22.4152 31.7271 21.7803 31.7271 21.05C31.7271 20.3318 31.8635 19.7015 32.1362 19.1591C32.412 18.6136 32.7968 18.1894 33.2908 17.8864C33.7847 17.5803 34.365 17.4273 35.0317 17.4273C35.462 17.4273 35.868 17.497 36.2498 17.6364C36.6347 17.7727 36.9741 17.9848 37.268 18.2727C37.565 18.5606 37.7983 18.9273 37.968 19.3727C38.1377 19.8152 38.2226 20.3424 38.2226 20.9545V21.4591H32.4998V20.35H36.6453C36.6423 20.0348 36.5741 19.7545 36.4408 19.5091C36.3074 19.2606 36.1211 19.0652 35.8817 18.9227C35.6453 18.7803 35.3695 18.7091 35.0544 18.7091C34.718 18.7091 34.4226 18.7909 34.168 18.9545C33.9135 19.1152 33.715 19.3273 33.5726 19.5909C33.4332 19.8515 33.362 20.1379 33.3589 20.45V21.4182C33.3589 21.8242 33.4332 22.1727 33.5817 22.4636C33.7302 22.7515 33.9377 22.9727 34.2044 23.1273C34.4711 23.2788 34.7832 23.3545 35.1408 23.3545C35.3802 23.3545 35.5968 23.3212 35.7908 23.2545C35.9847 23.1848 36.1529 23.0833 36.2953 22.95C36.4377 22.8167 36.5453 22.6515 36.618 22.4545L38.1544 22.6273C38.0574 23.0333 37.8726 23.3879 37.5998 23.6909C37.3302 23.9909 36.9847 24.2242 36.5635 24.3909C36.1423 24.5545 35.6605 24.6364 35.118 24.6364ZM39.6146 24.5V17.5182H41.2101V18.6818H41.2828C41.4101 18.2788 41.6283 17.9682 41.9373 17.75C42.2495 17.5288 42.6055 17.4182 43.0055 17.4182C43.0964 17.4182 43.198 17.4227 43.3101 17.4318C43.4252 17.4379 43.5207 17.4485 43.5964 17.4636V18.9773C43.5267 18.953 43.4161 18.9318 43.2646 18.9136C43.1161 18.8924 42.9722 18.8818 42.8328 18.8818C42.5328 18.8818 42.2631 18.947 42.0237 19.0773C41.7873 19.2045 41.601 19.3818 41.4646 19.6091C41.3283 19.8364 41.2601 20.0985 41.2601 20.3955V24.5H39.6146ZM46.5737 24.6409C46.1313 24.6409 45.7328 24.5621 45.3783 24.4045C45.0267 24.2439 44.748 24.0076 44.5419 23.6955C44.3389 23.3833 44.2373 22.9985 44.2373 22.5409C44.2373 22.147 44.3101 21.8212 44.4555 21.5636C44.601 21.3061 44.7995 21.1 45.051 20.9455C45.3025 20.7909 45.5858 20.6742 45.901 20.5955C46.2192 20.5136 46.548 20.4545 46.8873 20.4182C47.2964 20.3758 47.6283 20.3379 47.8828 20.3045C48.1373 20.2682 48.3222 20.2136 48.4373 20.1409C48.5555 20.0652 48.6146 19.9485 48.6146 19.7909V19.7636C48.6146 19.4212 48.5131 19.1561 48.3101 18.9682C48.107 18.7803 47.8146 18.6864 47.4328 18.6864C47.0298 18.6864 46.7101 18.7742 46.4737 18.95C46.2404 19.1258 46.0828 19.3333 46.001 19.5727L44.4646 19.3545C44.5858 18.9303 44.7858 18.5758 45.0646 18.2909C45.3434 18.003 45.6843 17.7879 46.0873 17.6455C46.4904 17.5 46.9358 17.4273 47.4237 17.4273C47.7601 17.4273 48.0949 17.4667 48.4283 17.5455C48.7616 17.6242 49.0661 17.7545 49.3419 17.9364C49.6177 18.1152 49.8389 18.3591 50.0055 18.6682C50.1752 18.9773 50.2601 19.3636 50.2601 19.8273V24.5H48.6783V23.5409H48.6237C48.5237 23.7348 48.3828 23.9167 48.201 24.0864C48.0222 24.253 47.7964 24.3879 47.5237 24.4909C47.254 24.5909 46.9373 24.6409 46.5737 24.6409ZM47.001 23.4318C47.3313 23.4318 47.6177 23.3667 47.8601 23.2364C48.1025 23.103 48.2889 22.9273 48.4192 22.7091C48.5525 22.4909 48.6192 22.253 48.6192 21.9955V21.1727C48.5677 21.2152 48.4798 21.2545 48.3555 21.2909C48.2343 21.3273 48.098 21.3591 47.9464 21.3864C47.7949 21.4136 47.6449 21.4379 47.4964 21.4591C47.348 21.4803 47.2192 21.4985 47.1101 21.5136C46.8646 21.547 46.6449 21.6015 46.451 21.6773C46.257 21.753 46.104 21.8591 45.9919 21.9955C45.8798 22.1288 45.8237 22.3015 45.8237 22.5136C45.8237 22.8167 45.9343 23.0455 46.1555 23.2C46.3767 23.3545 46.6586 23.4318 47.001 23.4318ZM54.9601 24.6364C54.2631 24.6364 53.6646 24.4833 53.1646 24.1773C52.6676 23.8712 52.2843 23.4485 52.0146 22.9091C51.748 22.3667 51.6146 21.7424 51.6146 21.0364C51.6146 20.3273 51.751 19.7015 52.0237 19.1591C52.2964 18.6136 52.6813 18.1894 53.1783 17.8864C53.6783 17.5803 54.2692 17.4273 54.951 17.4273C55.5176 17.4273 56.0192 17.5318 56.4555 17.7409C56.8949 17.947 57.2449 18.2394 57.5055 18.6182C57.7661 18.9939 57.9146 19.4333 57.951 19.9364H56.3783C56.3146 19.6 56.1631 19.3197 55.9237 19.0955C55.6873 18.8682 55.3707 18.7545 54.9737 18.7545C54.6373 18.7545 54.3419 18.8455 54.0873 19.0273C53.8328 19.2061 53.6343 19.4636 53.4919 19.8C53.3525 20.1364 53.2828 20.5394 53.2828 21.0091C53.2828 21.4848 53.3525 21.8939 53.4919 22.2364C53.6313 22.5758 53.8267 22.8379 54.0783 23.0227C54.3328 23.2045 54.6313 23.2955 54.9737 23.2955C55.2161 23.2955 55.4328 23.25 55.6237 23.1591C55.8176 23.0652 55.9798 22.9303 56.1101 22.7545C56.2404 22.5788 56.3298 22.3652 56.3783 22.1136H57.951C57.9116 22.6076 57.7661 23.0455 57.5146 23.4273C57.2631 23.8061 56.9207 24.103 56.4873 24.3182C56.054 24.5303 55.5449 24.6364 54.9601 24.6364ZM62.7885 17.5182V18.7909H58.7748V17.5182H62.7885ZM59.7658 15.8455H61.4112V22.4C61.4112 22.6212 61.4445 22.7909 61.5112 22.9091C61.5809 23.0242 61.6718 23.103 61.7839 23.1455C61.8961 23.1879 62.0203 23.2091 62.1567 23.2091C62.2597 23.2091 62.3536 23.2015 62.4385 23.1864C62.5264 23.1712 62.593 23.1576 62.6385 23.1455L62.9158 24.4318C62.8279 24.4621 62.7021 24.4955 62.5385 24.5318C62.3779 24.5682 62.1809 24.5894 61.9476 24.5955C61.5355 24.6076 61.1642 24.5455 60.8339 24.4091C60.5036 24.2697 60.2415 24.0545 60.0476 23.7636C59.8567 23.4727 59.7627 23.1091 59.7658 22.6727V15.8455ZM64.1646 24.5V17.5182H65.8101V24.5H64.1646ZM64.9919 16.5273C64.7313 16.5273 64.507 16.4409 64.3192 16.2682C64.1313 16.0924 64.0373 15.8818 64.0373 15.6364C64.0373 15.3879 64.1313 15.1773 64.3192 15.0045C64.507 14.8288 64.7313 14.7409 64.9919 14.7409C65.2555 14.7409 65.4798 14.8288 65.6646 15.0045C65.8525 15.1773 65.9464 15.3879 65.9464 15.6364C65.9464 15.8818 65.8525 16.0924 65.6646 16.2682C65.4798 16.4409 65.2555 16.5273 64.9919 16.5273ZM73.7385 17.5182L71.2521 24.5H69.4339L66.9476 17.5182H68.7021L70.3067 22.7045H70.3794L71.9885 17.5182H73.7385ZM77.7305 24.6364C77.0305 24.6364 76.426 24.4909 75.9169 24.2C75.4108 23.9061 75.0214 23.4909 74.7487 22.9545C74.476 22.4152 74.3396 21.7803 74.3396 21.05C74.3396 20.3318 74.476 19.7015 74.7487 19.1591C75.0245 18.6136 75.4093 18.1894 75.9033 17.8864C76.3972 17.5803 76.9775 17.4273 77.6442 17.4273C78.0745 17.4273 78.4805 17.497 78.8623 17.6364C79.2472 17.7727 79.5866 17.9848 79.8805 18.2727C80.1775 18.5606 80.4108 18.9273 80.5805 19.3727C80.7502 19.8152 80.8351 20.3424 80.8351 20.9545V21.4591H75.1123V20.35H79.2578C79.2548 20.0348 79.1866 19.7545 79.0533 19.5091C78.9199 19.2606 78.7336 19.0652 78.4942 18.9227C78.2578 18.7803 77.982 18.7091 77.6669 18.7091C77.3305 18.7091 77.0351 18.7909 76.7805 18.9545C76.526 19.1152 76.3275 19.3273 76.1851 19.5909C76.0457 19.8515 75.9745 20.1379 75.9714 20.45V21.4182C75.9714 21.8242 76.0457 22.1727 76.1942 22.4636C76.3427 22.7515 76.5502 22.9727 76.8169 23.1273C77.0836 23.2788 77.3957 23.3545 77.7533 23.3545C77.9927 23.3545 78.2093 23.3212 78.4033 23.2545C78.5972 23.1848 78.7654 23.0833 78.9078 22.95C79.0502 22.8167 79.1578 22.6515 79.2305 22.4545L80.7669 22.6273C80.6699 23.0333 80.4851 23.3879 80.2123 23.6909C79.9427 23.9909 79.5972 24.2242 79.176 24.3909C78.7548 24.5545 78.273 24.6364 77.7305 24.6364ZM85.4748 24.5V15.1909H88.9658C89.6809 15.1909 90.2809 15.3242 90.7658 15.5909C91.2536 15.8576 91.6218 16.2242 91.8703 16.6909C92.1218 17.1545 92.2476 17.6818 92.2476 18.2727C92.2476 18.8697 92.1218 19.4 91.8703 19.8636C91.6188 20.3273 91.2476 20.6924 90.7567 20.9591C90.2658 21.2227 89.6612 21.3545 88.943 21.3545H86.6294V19.9682H88.7158C89.1339 19.9682 89.4764 19.8955 89.743 19.75C90.0097 19.6045 90.2067 19.4045 90.3339 19.15C90.4642 18.8955 90.5294 18.603 90.5294 18.2727C90.5294 17.9424 90.4642 17.6515 90.3339 17.4C90.2067 17.1485 90.0082 16.953 89.7385 16.8136C89.4718 16.6712 89.1279 16.6 88.7067 16.6H87.1612V24.5H85.4748ZM93.6396 24.5V17.5182H95.2351V18.6818H95.3078C95.4351 18.2788 95.6533 17.9682 95.9623 17.75C96.2745 17.5288 96.6305 17.4182 97.0305 17.4182C97.1214 17.4182 97.223 17.4227 97.3351 17.4318C97.4502 17.4379 97.5457 17.4485 97.6214 17.4636V18.9773C97.5517 18.953 97.4411 18.9318 97.2896 18.9136C97.1411 18.8924 96.9972 18.8818 96.8578 18.8818C96.5578 18.8818 96.2881 18.947 96.0487 19.0773C95.8123 19.2045 95.626 19.3818 95.4896 19.6091C95.3533 19.8364 95.2851 20.0985 95.2851 20.3955V24.5H93.6396ZM101.518 24.6364C100.818 24.6364 100.213 24.4909 99.7044 24.2C99.1983 23.9061 98.8089 23.4909 98.5362 22.9545C98.2635 22.4152 98.1271 21.7803 98.1271 21.05C98.1271 20.3318 98.2635 19.7015 98.5362 19.1591C98.812 18.6136 99.1968 18.1894 99.6908 17.8864C100.185 17.5803 100.765 17.4273 101.432 17.4273C101.862 17.4273 102.268 17.497 102.65 17.6364C103.035 17.7727 103.374 17.9848 103.668 18.2727C103.965 18.5606 104.198 18.9273 104.368 19.3727C104.538 19.8152 104.623 20.3424 104.623 20.9545V21.4591H98.8998V20.35H103.045C103.042 20.0348 102.974 19.7545 102.841 19.5091C102.707 19.2606 102.521 19.0652 102.282 18.9227C102.045 18.7803 101.77 18.7091 101.454 18.7091C101.118 18.7091 100.823 18.7909 100.568 18.9545C100.313 19.1152 100.115 19.3273 99.9726 19.5909C99.8332 19.8515 99.762 20.1379 99.7589 20.45V21.4182C99.7589 21.8242 99.8332 22.1727 99.9817 22.4636C100.13 22.7515 100.338 22.9727 100.604 23.1273C100.871 23.2788 101.183 23.3545 101.541 23.3545C101.78 23.3545 101.997 23.3212 102.191 23.2545C102.385 23.1848 102.553 23.0833 102.695 22.95C102.838 22.8167 102.945 22.6515 103.018 22.4545L104.554 22.6273C104.457 23.0333 104.273 23.3879 104 23.6909C103.73 23.9909 103.385 24.2242 102.963 24.3909C102.542 24.5545 102.06 24.6364 101.518 24.6364ZM112.051 17.5182L109.565 24.5H107.746L105.26 17.5182H107.015L108.619 22.7045H108.692L110.301 17.5182H112.051ZM113.19 24.5V17.5182H114.835V24.5H113.19ZM114.017 16.5273C113.756 16.5273 113.532 16.4409 113.344 16.2682C113.156 16.0924 113.062 15.8818 113.062 15.6364C113.062 15.3879 113.156 15.1773 113.344 15.0045C113.532 14.8288 113.756 14.7409 114.017 14.7409C114.281 14.7409 114.505 14.8288 114.69 15.0045C114.878 15.1773 114.971 15.3879 114.971 15.6364C114.971 15.8818 114.878 16.0924 114.69 16.2682C114.505 16.4409 114.281 16.5273 114.017 16.5273ZM119.618 24.6364C118.918 24.6364 118.313 24.4909 117.804 24.2C117.298 23.9061 116.909 23.4909 116.636 22.9545C116.363 22.4152 116.227 21.7803 116.227 21.05C116.227 20.3318 116.363 19.7015 116.636 19.1591C116.912 18.6136 117.297 18.1894 117.791 17.8864C118.285 17.5803 118.865 17.4273 119.532 17.4273C119.962 17.4273 120.368 17.497 120.75 17.6364C121.135 17.7727 121.474 17.9848 121.768 18.2727C122.065 18.5606 122.298 18.9273 122.468 19.3727C122.638 19.8152 122.723 20.3424 122.723 20.9545V21.4591H117V20.35H121.145C121.142 20.0348 121.074 19.7545 120.941 19.5091C120.807 19.2606 120.621 19.0652 120.382 18.9227C120.145 18.7803 119.87 18.7091 119.554 18.7091C119.218 18.7091 118.923 18.7909 118.668 18.9545C118.413 19.1152 118.215 19.3273 118.073 19.5909C117.933 19.8515 117.862 20.1379 117.859 20.45V21.4182C117.859 21.8242 117.933 22.1727 118.082 22.4636C118.23 22.7515 118.438 22.9727 118.704 23.1273C118.971 23.2788 119.283 23.3545 119.641 23.3545C119.88 23.3545 120.097 23.3212 120.291 23.2545C120.485 23.1848 120.653 23.0833 120.795 22.95C120.938 22.8167 121.045 22.6515 121.118 22.4545L122.654 22.6273C122.557 23.0333 122.373 23.3879 122.1 23.6909C121.83 23.9909 121.485 24.2242 121.063 24.3909C120.642 24.5545 120.16 24.6364 119.618 24.6364ZM125.518 24.5L123.545 17.5182H125.223L126.45 22.4273H126.513L127.768 17.5182H129.427L130.682 22.4H130.75L131.959 17.5182H133.641L131.663 24.5H129.95L128.641 19.7818H128.545L127.236 24.5H125.518ZM140.308 19.3636L138.808 19.5273C138.765 19.3758 138.691 19.2333 138.585 19.1C138.482 18.9667 138.343 18.8591 138.167 18.7773C137.991 18.6955 137.776 18.6545 137.521 18.6545C137.179 18.6545 136.891 18.7288 136.658 18.8773C136.428 19.0258 136.314 19.2182 136.317 19.4545C136.314 19.6576 136.388 19.8227 136.54 19.95C136.694 20.0773 136.949 20.1818 137.303 20.2636L138.494 20.5182C139.155 20.6606 139.646 20.8864 139.967 21.1955C140.291 21.5045 140.455 21.9091 140.458 22.4091C140.455 22.8485 140.326 23.2364 140.071 23.5727C139.82 23.9061 139.47 24.1667 139.021 24.3545C138.573 24.5424 138.058 24.6364 137.476 24.6364C136.621 24.6364 135.934 24.4576 135.412 24.1C134.891 23.7394 134.581 23.2379 134.481 22.5955L136.085 22.4409C136.158 22.7561 136.312 22.9939 136.549 23.1545C136.785 23.3152 137.093 23.3955 137.471 23.3955C137.862 23.3955 138.176 23.3152 138.412 23.1545C138.652 22.9939 138.771 22.7955 138.771 22.5591C138.771 22.3591 138.694 22.1939 138.54 22.0636C138.388 21.9333 138.152 21.8333 137.831 21.7636L136.64 21.5136C135.97 21.3742 135.474 21.1394 135.153 20.8091C134.832 20.4758 134.673 20.0545 134.676 19.5455C134.673 19.1152 134.79 18.7424 135.026 18.4273C135.265 18.1091 135.597 17.8636 136.021 17.6909C136.449 17.5152 136.941 17.4273 137.499 17.4273C138.317 17.4273 138.961 17.6015 139.431 17.95C139.903 18.2985 140.196 18.7697 140.308 19.3636Z" fill="#4A6600"/>
<g opacity="0.7">
<rect width="20" height="20" transform="translate(294.082 10)" fill="#B8F500"/>
</g>
<defs>
<clipPath id="clip0_3_4">
<path d="M15.0817 50C15.0817 44.4772 19.5588 40 25.0817 40H304.082C309.605 40 314.082 44.4772 314.082 50V71H15.0817V50Z" fill="white"/>
</clipPath>
</defs>
</svg>
